solid AssimpScene
 facet normal 0.13062 0.991432 0
  outer loop
  vertex 60.9924 16.3807 -12.1303
  vertex 60.9924 16.3807 -9.13034
  vertex 63.7237 16.1117 -9.13034
  endloop
 endfacet

 facet normal 0.0653101 0.997865 0
  outer loop
  vertex 60.9924 16.3807 -12.1303
  vertex 63.7237 16.1117 -9.13034
  vertex 63.7237 16.1117 -12.1303
  endloop
 endfacet

 facet normal 0.258729 0.96595 0
  outer loop
  vertex 60.9924 16.3807 -9.13034
  vertex 60.9924 16.3807 -12.1303
  vertex 58.3661 17.1774 -12.1303
  endloop
 endfacet

 facet normal 0.321528 0.9469 0
  outer loop
  vertex 60.9924 16.3807 -9.13034
  vertex 58.3661 17.1774 -12.1303
  vertex 58.3661 17.1774 -9.13034
  endloop
 endfacet

 facet normal 6.08195e-31 -3.15146e-31 -1
  outer loop
  vertex 60.9924 16.3807 -12.1303
  vertex 32.4471 19.1117 -12.1303
  vertex 58.3661 17.1774 -12.1303
  endloop
 endfacet

 facet normal 6.08195e-31 -3.15146e-31 -1
  outer loop
  vertex 48.2237 16.2517 -12.1303
  vertex 32.4471 19.1117 -12.1303
  vertex 60.9924 16.3807 -12.1303
  endloop
 endfacet

 facet normal 6.08195e-31 -3.15146e-31 -1
  outer loop
  vertex 63.7237 16.1117 -12.1303
  vertex 48.2237 16.2517 -12.1303
  vertex 60.9924 16.3807 -12.1303
  endloop
 endfacet

 facet normal 6.08195e-31 -3.15146e-31 -1
  outer loop
  vertex 58.3661 17.1774 -12.1303
  vertex 32.4471 19.1117 -12.1303
  vertex 55.9457 18.4711 -12.1303
  endloop
 endfacet

 facet normal 6.08195e-31 -3.15146e-31 -1
  outer loop
  vertex 55.9457 18.4711 -12.1303
  vertex 32.4471 19.1117 -12.1303
  vertex 55.1652 19.1117 -12.1303
  endloop
 endfacet

 facet normal 6.08195e-31 -3.15146e-31 -1
  outer loop
  vertex 47.0641 15.7713 -12.1303
  vertex 32.4471 19.1117 -12.1303
  vertex 48.2237 16.2517 -12.1303
  endloop
 endfacet

 facet normal 6.08195e-31 -3.15146e-31 -1
  outer loop
  vertex 46.5837 14.6117 -12.1303
  vertex 32.4471 19.1117 -12.1303
  vertex 47.0641 15.7713 -12.1303
  endloop
 endfacet

 facet normal 6.08195e-31 -3.15146e-31 -1
  outer loop
  vertex 42.666 14.1117 -12.1303
  vertex 32.4471 19.1117 -12.1303
  vertex 46.5837 14.6117 -12.1303
  endloop
 endfacet

 facet normal 6.08195e-31 -3.15146e-31 -1
  outer loop
  vertex 32.4471 19.1117 -12.1303
  vertex 42.666 14.1117 -12.1303
  vertex 32.4471 14.1117 -12.1303
  endloop
 endfacet

 facet normal 6.08195e-31 -3.15146e-31 -1
  outer loop
  vertex 78.064 15.7713 -12.1303
  vertex 48.2237 16.2517 -12.1303
  vertex 63.7237 16.1117 -12.1303
  endloop
 endfacet

 facet normal 6.08195e-31 -3.15146e-31 -1
  outer loop
  vertex 78.064 15.7713 -12.1303
  vertex 49.3834 15.7713 -12.1303
  vertex 48.2237 16.2517 -12.1303
  endloop
 endfacet

 facet normal 6.08195e-31 -3.15146e-31 -1
  outer loop
  vertex 77.5837 14.6117 -12.1303
  vertex 49.3834 15.7713 -12.1303
  vertex 78.064 15.7713 -12.1303
  endloop
 endfacet

 facet normal 6.08195e-31 -3.15146e-31 -1
  outer loop
  vertex 63.7237 16.1117 -12.1303
  vertex 79.2237 16.2517 -12.1303
  vertex 78.064 15.7713 -12.1303
  endloop
 endfacet

 facet normal 6.08195e-31 -3.15146e-31 -1
  outer loop
  vertex 77.5837 14.6117 -12.1303
  vertex 49.8637 14.6117 -12.1303
  vertex 49.3834 15.7713 -12.1303
  endloop
 endfacet

 facet normal 6.08195e-31 -3.15146e-31 -1
  outer loop
  vertex 78.064 13.452 -12.1303
  vertex 49.8637 14.6117 -12.1303
  vertex 77.5837 14.6117 -12.1303
  endloop
 endfacet

 facet normal 6.08195e-31 -3.15146e-31 -1
  outer loop
  vertex 78.064 13.452 -12.1303
  vertex 49.3834 13.452 -12.1303
  vertex 49.8637 14.6117 -12.1303
  endloop
 endfacet

 facet normal 6.08195e-31 -3.15146e-31 -1
  outer loop
  vertex 79.2237 12.9717 -12.1303
  vertex 49.3834 13.452 -12.1303
  vertex 78.064 13.452 -12.1303
  endloop
 endfacet

 facet normal 6.08195e-31 -3.15146e-31 -1
  outer loop
  vertex 49.3834 13.452 -12.1303
  vertex 79.2237 12.9717 -12.1303
  vertex 48.2237 12.9717 -12.1303
  endloop
 endfacet

 facet normal 6.08195e-31 -3.15146e-31 -1
  outer loop
  vertex 79.2237 12.9717 -12.1303
  vertex 84.8225 9.11168 -12.1303
  vertex 48.2237 12.9717 -12.1303
  endloop
 endfacet

 facet normal 6.08195e-31 -3.15146e-31 -1
  outer loop
  vertex 84.8225 9.11168 -12.1303
  vertex 79.2237 12.9717 -12.1303
  vertex 84.8225 14.1117 -12.1303
  endloop
 endfacet

 facet normal 6.08195e-31 -3.15146e-31 -1
  outer loop
  vertex 84.8225 14.1117 -12.1303
  vertex 79.2237 12.9717 -12.1303
  vertex 80.3834 13.452 -12.1303
  endloop
 endfacet

 facet normal 6.08195e-31 -3.15146e-31 -1
  outer loop
  vertex 48.2237 12.9717 -12.1303
  vertex 42.666 9.11168 -12.1303
  vertex 42.666 14.1117 -12.1303
  endloop
 endfacet

 facet normal 6.08195e-31 -3.15146e-31 -1
  outer loop
  vertex 42.666 9.11168 -12.1303
  vertex 48.2237 12.9717 -12.1303
  vertex 84.8225 9.11168 -12.1303
  endloop
 endfacet

 facet normal 6.08195e-31 -3.15146e-31 -1
  outer loop
  vertex 48.2237 12.9717 -12.1303
  vertex 42.666 14.1117 -12.1303
  vertex 47.0641 13.452 -12.1303
  endloop
 endfacet

 facet normal 6.08195e-31 -3.15146e-31 -1
  outer loop
  vertex 47.0641 13.452 -12.1303
  vertex 42.666 14.1117 -12.1303
  vertex 46.5837 14.6117 -12.1303
  endloop
 endfacet

 facet normal 6.08195e-31 -3.15146e-31 -1
  outer loop
  vertex 84.8225 14.1117 -12.1303
  vertex 80.3834 13.452 -12.1303
  vertex 80.8637 14.6117 -12.1303
  endloop
 endfacet

 facet normal 6.08195e-31 -3.15146e-31 -1
  outer loop
  vertex 84.8225 14.1117 -12.1303
  vertex 80.8637 14.6117 -12.1303
  vertex 95.9471 14.1117 -12.1303
  endloop
 endfacet

 facet normal 6.08195e-31 -3.15146e-31 -1
  outer loop
  vertex 95.9471 14.1117 -12.1303
  vertex 80.8637 14.6117 -12.1303
  vertex 95.9471 19.1117 -12.1303
  endloop
 endfacet

 facet normal 6.08195e-31 -3.15146e-31 -1
  outer loop
  vertex 95.9471 19.1117 -12.1303
  vertex 80.8637 14.6117 -12.1303
  vertex 80.3834 15.7713 -12.1303
  endloop
 endfacet

 facet normal 6.08195e-31 -3.15146e-31 -1
  outer loop
  vertex 95.9471 19.1117 -12.1303
  vertex 80.3834 15.7713 -12.1303
  vertex 79.2237 16.2517 -12.1303
  endloop
 endfacet

 facet normal 6.08195e-31 -3.15146e-31 -1
  outer loop
  vertex 95.9471 19.1117 -12.1303
  vertex 79.2237 16.2517 -12.1303
  vertex 66.455 16.3807 -12.1303
  endloop
 endfacet

 facet normal 6.08195e-31 -3.15146e-31 -1
  outer loop
  vertex 95.9471 19.1117 -12.1303
  vertex 66.455 16.3807 -12.1303
  vertex 69.0813 17.1774 -12.1303
  endloop
 endfacet

 facet normal 6.08195e-31 -3.15146e-31 -1
  outer loop
  vertex 95.9471 19.1117 -12.1303
  vertex 69.0813 17.1774 -12.1303
  vertex 71.5017 18.4711 -12.1303
  endloop
 endfacet

 facet normal 6.08195e-31 -3.15146e-31 -1
  outer loop
  vertex 95.9471 19.1117 -12.1303
  vertex 71.5017 18.4711 -12.1303
  vertex 72.2822 19.1117 -12.1303
  endloop
 endfacet

 facet normal 6.08195e-31 -3.15146e-31 -1
  outer loop
  vertex 79.2237 16.2517 -12.1303
  vertex 63.7237 16.1117 -12.1303
  vertex 66.455 16.3807 -12.1303
  endloop
 endfacet

 facet normal 0 1 0
  outer loop
  vertex 32.4471 14.1117 -20.1303
  vertex 32.4471 14.1117 -12.1303
  vertex 42.666 14.1117 -12.1303
  endloop
 endfacet

 facet normal 0 1 0
  outer loop
  vertex 32.4471 14.1117 -20.1303
  vertex 42.666 14.1117 -12.1303
  vertex 42.666 14.1117 -20.1303
  endloop
 endfacet

 facet normal -1 0 0
  outer loop
  vertex 32.4471 5.25955 -9.13034
  vertex 32.4471 19.1117 -9.13034
  vertex 32.4471 19.1117 -12.1303
  endloop
 endfacet

 facet normal -1 0 0
  outer loop
  vertex 32.4471 5.25955 -9.13034
  vertex 32.4471 19.1117 -12.1303
  vertex 32.4471 14.1117 -12.1303
  endloop
 endfacet

 facet normal -1 0 0
  outer loop
  vertex 32.4471 5.25955 -9.13034
  vertex 32.4471 14.1117 -12.1303
  vertex 32.4471 14.1117 -20.1303
  endloop
 endfacet

 facet normal -1 0 0
  outer loop
  vertex 32.4471 5.25955 -9.13034
  vertex 32.4471 14.1117 -20.1303
  vertex 32.4471 9.11168 -20.1303
  endloop
 endfacet

 facet normal -1 0 0
  outer loop
  vertex 32.4471 5.25955 -9.13034
  vertex 32.4471 9.11168 -20.1303
  vertex 32.4471 9.11168 -110.13
  endloop
 endfacet

 facet normal -1 0 0
  outer loop
  vertex 32.4471 5.25955 -121.13
  vertex 32.4471 5.25955 -9.13034
  vertex 32.4471 9.11168 -110.13
  endloop
 endfacet

 facet normal -1 0 0
  outer loop
  vertex 32.4471 9.11168 -110.13
  vertex 32.4471 14.1117 -110.13
  vertex 32.4471 14.1117 -118.13
  endloop
 endfacet

 facet normal -1 0 0
  outer loop
  vertex 32.4471 9.11168 -110.13
  vertex 32.4471 14.1117 -118.13
  vertex 32.4471 5.25955 -121.13
  endloop
 endfacet

 facet normal -1 0 0
  outer loop
  vertex 32.4471 14.1117 -118.13
  vertex 32.4471 19.1117 -121.13
  vertex 32.4471 5.25955 -121.13
  endloop
 endfacet

 facet normal -1 0 0
  outer loop
  vertex 32.4471 14.1117 -118.13
  vertex 32.4471 19.1117 -118.13
  vertex 32.4471 19.1117 -121.13
  endloop
 endfacet

 facet normal 0 0 1
  outer loop
  vertex 32.4471 5.25955 -9.13034
  vertex 48.2237 12.9717 -9.13034
  vertex 32.4471 19.1117 -9.13034
  endloop
 endfacet

 facet normal 0 0 1
  outer loop
  vertex 48.2237 12.9717 -9.13034
  vertex 32.4471 5.25955 -9.13034
  vertex 79.2237 12.9717 -9.13034
  endloop
 endfacet

 facet normal 0 0 1
  outer loop
  vertex 95.9471 5.25955 -9.13034
  vertex 79.2237 12.9717 -9.13034
  vertex 32.4471 5.25955 -9.13034
  endloop
 endfacet

 facet normal 0 0 1
  outer loop
  vertex 48.2237 12.9717 -9.13034
  vertex 78.064 13.452 -9.13034
  vertex 49.3834 13.452 -9.13034
  endloop
 endfacet

 facet normal 0 0 1
  outer loop
  vertex 78.064 13.452 -9.13034
  vertex 48.2237 12.9717 -9.13034
  vertex 79.2237 12.9717 -9.13034
  endloop
 endfacet

 facet normal 0 0 1
  outer loop
  vertex 32.4471 19.1117 -9.13034
  vertex 48.2237 12.9717 -9.13034
  vertex 47.0641 13.452 -9.13034
  endloop
 endfacet

 facet normal 0 0 1
  outer loop
  vertex 79.2237 12.9717 -9.13034
  vertex 95.9471 5.25955 -9.13034
  vertex 95.9471 19.1117 -9.13034
  endloop
 endfacet

 facet normal 0 0 1
  outer loop
  vertex 79.2237 12.9717 -9.13034
  vertex 95.9471 19.1117 -9.13034
  vertex 80.3834 13.452 -9.13034
  endloop
 endfacet

 facet normal 0 0 1
  outer loop
  vertex 80.3834 13.452 -9.13034
  vertex 95.9471 19.1117 -9.13034
  vertex 80.8637 14.6117 -9.13034
  endloop
 endfacet

 facet normal 0 0 1
  outer loop
  vertex 80.8637 14.6117 -9.13034
  vertex 95.9471 19.1117 -9.13034
  vertex 80.3834 15.7713 -9.13034
  endloop
 endfacet

 facet normal 0 0 1
  outer loop
  vertex 80.3834 15.7713 -9.13034
  vertex 95.9471 19.1117 -9.13034
  vertex 79.2237 16.2517 -9.13034
  endloop
 endfacet

 facet normal 0 0 1
  outer loop
  vertex 49.3834 15.7713 -9.13034
  vertex 78.064 15.7713 -9.13034
  vertex 79.2237 16.2517 -9.13034
  endloop
 endfacet

 facet normal 0 0 1
  outer loop
  vertex 49.3834 15.7713 -9.13034
  vertex 79.2237 16.2517 -9.13034
  vertex 63.7237 16.1117 -9.13034
  endloop
 endfacet

 facet normal 0 0 1
  outer loop
  vertex 63.7237 16.1117 -9.13034
  vertex 79.2237 16.2517 -9.13034
  vertex 66.455 16.3807 -9.13034
  endloop
 endfacet

 facet normal 0 0 1
  outer loop
  vertex 79.2237 16.2517 -9.13034
  vertex 95.9471 19.1117 -9.13034
  vertex 66.455 16.3807 -9.13034
  endloop
 endfacet

 facet normal 0 0 1
  outer loop
  vertex 49.8637 14.6117 -9.13034
  vertex 78.064 15.7713 -9.13034
  vertex 49.3834 15.7713 -9.13034
  endloop
 endfacet

 facet normal 0 0 1
  outer loop
  vertex 63.7237 16.1117 -9.13034
  vertex 48.2237 16.2517 -9.13034
  vertex 49.3834 15.7713 -9.13034
  endloop
 endfacet

 facet normal 0 0 1
  outer loop
  vertex 49.8637 14.6117 -9.13034
  vertex 77.5837 14.6117 -9.13034
  vertex 78.064 15.7713 -9.13034
  endloop
 endfacet

 facet normal 0 0 1
  outer loop
  vertex 49.3834 13.452 -9.13034
  vertex 77.5837 14.6117 -9.13034
  vertex 49.8637 14.6117 -9.13034
  endloop
 endfacet

 facet normal 0 0 1
  outer loop
  vertex 49.3834 13.452 -9.13034
  vertex 78.064 13.452 -9.13034
  vertex 77.5837 14.6117 -9.13034
  endloop
 endfacet

 facet normal 0 0 1
  outer loop
  vertex 48.2237 16.2517 -9.13034
  vertex 63.7237 16.1117 -9.13034
  vertex 60.9924 16.3807 -9.13034
  endloop
 endfacet

 facet normal 0 0 1
  outer loop
  vertex 32.4471 19.1117 -9.13034
  vertex 48.2237 16.2517 -9.13034
  vertex 60.9924 16.3807 -9.13034
  endloop
 endfacet

 facet normal 0 0 1
  outer loop
  vertex 32.4471 19.1117 -9.13034
  vertex 47.0641 15.7713 -9.13034
  vertex 48.2237 16.2517 -9.13034
  endloop
 endfacet

 facet normal 0 0 1
  outer loop
  vertex 32.4471 19.1117 -9.13034
  vertex 60.9924 16.3807 -9.13034
  vertex 58.3661 17.1774 -9.13034
  endloop
 endfacet

 facet normal 0 0 1
  outer loop
  vertex 32.4471 19.1117 -9.13034
  vertex 46.5837 14.6117 -9.13034
  vertex 47.0641 15.7713 -9.13034
  endloop
 endfacet

 facet normal 0 0 1
  outer loop
  vertex 32.4471 19.1117 -9.13034
  vertex 47.0641 13.452 -9.13034
  vertex 46.5837 14.6117 -9.13034
  endloop
 endfacet

 facet normal 0 0 1
  outer loop
  vertex 32.4471 19.1117 -9.13034
  vertex 58.3661 17.1774 -9.13034
  vertex 55.9457 18.4711 -9.13034
  endloop
 endfacet

 facet normal 0 0 1
  outer loop
  vertex 32.4471 19.1117 -9.13034
  vertex 55.9457 18.4711 -9.13034
  vertex 55.1652 19.1117 -9.13034
  endloop
 endfacet

 facet normal 0 0 1
  outer loop
  vertex 66.455 16.3807 -9.13034
  vertex 95.9471 19.1117 -9.13034
  vertex 69.0813 17.1774 -9.13034
  endloop
 endfacet

 facet normal 0 0 1
  outer loop
  vertex 69.0813 17.1774 -9.13034
  vertex 95.9471 19.1117 -9.13034
  vertex 71.5017 18.4711 -9.13034
  endloop
 endfacet

 facet normal 0 0 1
  outer loop
  vertex 71.5017 18.4711 -9.13034
  vertex 95.9471 19.1117 -9.13034
  vertex 72.2822 19.1117 -9.13034
  endloop
 endfacet

 facet normal 1 0 0
  outer loop
  vertex 95.9471 14.1117 -12.1303
  vertex 95.9471 19.1117 -9.13034
  vertex 95.9471 5.25955 -9.13034
  endloop
 endfacet

 facet normal 1 0 0
  outer loop
  vertex 95.9471 5.25955 -9.13034
  vertex 95.9471 5.25955 -121.13
  vertex 95.9471 9.11168 -20.1303
  endloop
 endfacet

 facet normal 1 0 0
  outer loop
  vertex 95.9471 5.25955 -9.13034
  vertex 95.9471 9.11168 -20.1303
  vertex 95.9471 14.1117 -12.1303
  endloop
 endfacet

 facet normal 1 0 0
  outer loop
  vertex 95.9471 9.11168 -20.1303
  vertex 95.9471 14.1117 -20.1303
  vertex 95.9471 14.1117 -12.1303
  endloop
 endfacet

 facet normal 1 0 0
  outer loop
  vertex 95.9471 14.1117 -12.1303
  vertex 95.9471 19.1117 -12.1303
  vertex 95.9471 19.1117 -9.13034
  endloop
 endfacet

 facet normal 1 0 0
  outer loop
  vertex 95.9471 5.25955 -121.13
  vertex 95.9471 9.11168 -110.13
  vertex 95.9471 9.11168 -20.1303
  endloop
 endfacet

 facet normal 1 0 0
  outer loop
  vertex 95.9471 5.25955 -121.13
  vertex 95.9471 14.1117 -110.13
  vertex 95.9471 9.11168 -110.13
  endloop
 endfacet

 facet normal 1 0 0
  outer loop
  vertex 95.9471 5.25955 -121.13
  vertex 95.9471 19.1117 -121.13
  vertex 95.9471 19.1117 -118.13
  endloop
 endfacet

 facet normal 1 0 0
  outer loop
  vertex 95.9471 5.25955 -121.13
  vertex 95.9471 19.1117 -118.13
  vertex 95.9471 14.1117 -118.13
  endloop
 endfacet

 facet normal 1 0 0
  outer loop
  vertex 95.9471 5.25955 -121.13
  vertex 95.9471 14.1117 -118.13
  vertex 95.9471 14.1117 -110.13
  endloop
 endfacet

 facet normal 0 -1 0
  outer loop
  vertex 95.9471 5.25955 -9.13034
  vertex 77.7237 5.25955 -35.1303
  vertex 95.9471 5.25955 -121.13
  endloop
 endfacet

 facet normal 0 -1 0
  outer loop
  vertex 95.9471 5.25955 -9.13034
  vertex 77.2467 5.25955 -31.5068
  vertex 77.7237 5.25955 -35.1303
  endloop
 endfacet

 facet normal 0 -1 0
  outer loop
  vertex 95.9471 5.25955 -9.13034
  vertex 75.8481 5.25955 -28.1303
  vertex 77.2467 5.25955 -31.5068
  endloop
 endfacet

 facet normal 0 -1 0
  outer loop
  vertex 95.9471 5.25955 -9.13034
  vertex 73.6232 5.25955 -25.2308
  vertex 75.8481 5.25955 -28.1303
  endloop
 endfacet

 facet normal 0 -1 0
  outer loop
  vertex 95.9471 5.25955 -9.13034
  vertex 70.7237 5.25955 -23.0059
  vertex 73.6232 5.25955 -25.2308
  endloop
 endfacet

 facet normal 0 -1 0
  outer loop
  vertex 95.9471 5.25955 -9.13034
  vertex 67.3472 5.25955 -21.6073
  vertex 70.7237 5.25955 -23.0059
  endloop
 endfacet

 facet normal 0 -1 0
  outer loop
  vertex 95.9471 5.25955 -9.13034
  vertex 63.7237 5.25955 -21.1303
  vertex 67.3472 5.25955 -21.6073
  endloop
 endfacet

 facet normal 0 -1 0
  outer loop
  vertex 95.9471 5.25955 -9.13034
  vertex 60.1002 5.25955 -21.6073
  vertex 63.7237 5.25955 -21.1303
  endloop
 endfacet

 facet normal 0 -1 0
  outer loop
  vertex 32.4471 5.25955 -9.13034
  vertex 60.1002 5.25955 -21.6073
  vertex 95.9471 5.25955 -9.13034
  endloop
 endfacet

 facet normal 0 -1 0
  outer loop
  vertex 60.1002 5.25955 -21.6073
  vertex 32.4471 5.25955 -9.13034
  vertex 56.7237 5.25955 -23.0059
  endloop
 endfacet

 facet normal 0 -1 0
  outer loop
  vertex 56.7237 5.25955 -23.0059
  vertex 32.4471 5.25955 -9.13034
  vertex 53.8242 5.25955 -25.2308
  endloop
 endfacet

 facet normal 0 -1 0
  outer loop
  vertex 53.8242 5.25955 -25.2308
  vertex 32.4471 5.25955 -9.13034
  vertex 51.5993 5.25955 -28.1303
  endloop
 endfacet

 facet normal 0 -1 0
  outer loop
  vertex 51.5993 5.25955 -28.1303
  vertex 32.4471 5.25955 -9.13034
  vertex 50.2007 5.25955 -31.5068
  endloop
 endfacet

 facet normal 0 -1 0
  outer loop
  vertex 50.2007 5.25955 -31.5068
  vertex 32.4471 5.25955 -9.13034
  vertex 49.7237 5.25955 -35.1303
  endloop
 endfacet

 facet normal 0 -1 0
  outer loop
  vertex 49.7237 5.25955 -35.1303
  vertex 32.4471 5.25955 -9.13034
  vertex 49.7237 5.25955 -95.1303
  endloop
 endfacet

 facet normal 0 -1 0
  outer loop
  vertex 32.4471 5.25955 -9.13034
  vertex 50.2007 5.25955 -98.7538
  vertex 49.7237 5.25955 -95.1303
  endloop
 endfacet

 facet normal 0 -1 0
  outer loop
  vertex 32.4471 5.25955 -121.13
  vertex 50.2007 5.25955 -98.7538
  vertex 32.4471 5.25955 -9.13034
  endloop
 endfacet

 facet normal 0 -1 0
  outer loop
  vertex 49.7237 5.25955 -35.1303
  vertex 50.2007 5.25955 -91.5068
  vertex 50.2007 5.25955 -38.7538
  endloop
 endfacet

 facet normal 0 -1 0
  outer loop
  vertex 50.2007 5.25955 -91.5068
  vertex 49.7237 5.25955 -35.1303
  vertex 49.7237 5.25955 -95.1303
  endloop
 endfacet

 facet normal 0 -1 0
  outer loop
  vertex 50.2007 5.25955 -38.7538
  vertex 50.2007 5.25955 -91.5068
  vertex 51.5993 5.25955 -88.1303
  endloop
 endfacet

 facet normal 0 -1 0
  outer loop
  vertex 50.2007 5.25955 -38.7538
  vertex 51.5993 5.25955 -88.1303
  vertex 51.5993 5.25955 -42.1303
  endloop
 endfacet

 facet normal 0 -1 0
  outer loop
  vertex 51.5993 5.25955 -42.1303
  vertex 51.5993 5.25955 -88.1303
  vertex 53.8242 5.25955 -85.2308
  endloop
 endfacet

 facet normal 0 -1 0
  outer loop
  vertex 51.5993 5.25955 -42.1303
  vertex 53.8242 5.25955 -85.2308
  vertex 53.8242 5.25955 -45.0298
  endloop
 endfacet

 facet normal 0 -1 0
  outer loop
  vertex 53.8242 5.25955 -45.0298
  vertex 53.8242 5.25955 -85.2308
  vertex 56.7237 5.25955 -83.0059
  endloop
 endfacet

 facet normal 0 -1 0
  outer loop
  vertex 53.8242 5.25955 -45.0298
  vertex 56.7237 5.25955 -83.0059
  vertex 56.7237 5.25955 -47.2547
  endloop
 endfacet

 facet normal 0 -1 0
  outer loop
  vertex 56.7237 5.25955 -47.2547
  vertex 56.7237 5.25955 -83.0059
  vertex 60.1002 5.25955 -81.6073
  endloop
 endfacet

 facet normal 0 -1 0
  outer loop
  vertex 56.7237 5.25955 -47.2547
  vertex 60.1002 5.25955 -81.6073
  vertex 60.1002 5.25955 -48.6533
  endloop
 endfacet

 facet normal 0 -1 0
  outer loop
  vertex 60.1002 5.25955 -48.6533
  vertex 60.1002 5.25955 -81.6073
  vertex 63.7237 5.25955 -81.1303
  endloop
 endfacet

 facet normal 0 -1 0
  outer loop
  vertex 60.1002 5.25955 -48.6533
  vertex 63.7237 5.25955 -81.1303
  vertex 63.7237 5.25955 -49.1303
  endloop
 endfacet

 facet normal 0 -1 0
  outer loop
  vertex 63.7237 5.25955 -49.1303
  vertex 63.7237 5.25955 -81.1303
  vertex 67.3472 5.25955 -81.6073
  endloop
 endfacet

 facet normal 0 -1 0
  outer loop
  vertex 63.7237 5.25955 -49.1303
  vertex 67.3472 5.25955 -81.6073
  vertex 67.3472 5.25955 -48.6533
  endloop
 endfacet

 facet normal 0 -1 0
  outer loop
  vertex 67.3472 5.25955 -48.6533
  vertex 67.3472 5.25955 -81.6073
  vertex 70.7237 5.25955 -83.0059
  endloop
 endfacet

 facet normal 0 -1 0
  outer loop
  vertex 67.3472 5.25955 -48.6533
  vertex 70.7237 5.25955 -83.0059
  vertex 70.7237 5.25955 -47.2547
  endloop
 endfacet

 facet normal 0 -1 0
  outer loop
  vertex 70.7237 5.25955 -47.2547
  vertex 70.7237 5.25955 -83.0059
  vertex 73.6232 5.25955 -85.2308
  endloop
 endfacet

 facet normal 0 -1 0
  outer loop
  vertex 70.7237 5.25955 -47.2547
  vertex 73.6232 5.25955 -85.2308
  vertex 73.6232 5.25955 -45.0298
  endloop
 endfacet

 facet normal 0 -1 0
  outer loop
  vertex 73.6232 5.25955 -45.0298
  vertex 73.6232 5.25955 -85.2308
  vertex 75.8481 5.25955 -88.1303
  endloop
 endfacet

 facet normal 0 -1 0
  outer loop
  vertex 73.6232 5.25955 -45.0298
  vertex 75.8481 5.25955 -88.1303
  vertex 75.8481 5.25955 -42.1303
  endloop
 endfacet

 facet normal 0 -1 0
  outer loop
  vertex 75.8481 5.25955 -42.1303
  vertex 75.8481 5.25955 -88.1303
  vertex 77.2467 5.25955 -91.5068
  endloop
 endfacet

 facet normal 0 -1 0
  outer loop
  vertex 75.8481 5.25955 -42.1303
  vertex 77.2467 5.25955 -91.5068
  vertex 77.2467 5.25955 -38.7538
  endloop
 endfacet

 facet normal 0 -1 0
  outer loop
  vertex 77.2467 5.25955 -38.7538
  vertex 77.2467 5.25955 -91.5068
  vertex 77.7237 5.25955 -95.1303
  endloop
 endfacet

 facet normal 0 -1 0
  outer loop
  vertex 77.2467 5.25955 -38.7538
  vertex 77.7237 5.25955 -95.1303
  vertex 77.7237 5.25955 -35.1303
  endloop
 endfacet

 facet normal 0 -1 0
  outer loop
  vertex 77.2467 5.25955 -98.7538
  vertex 95.9471 5.25955 -121.13
  vertex 77.7237 5.25955 -95.1303
  endloop
 endfacet

 facet normal 0 -1 0
  outer loop
  vertex 77.7237 5.25955 -95.1303
  vertex 95.9471 5.25955 -121.13
  vertex 77.7237 5.25955 -35.1303
  endloop
 endfacet

 facet normal 0 -1 0
  outer loop
  vertex 75.8481 5.25955 -102.13
  vertex 95.9471 5.25955 -121.13
  vertex 77.2467 5.25955 -98.7538
  endloop
 endfacet

 facet normal 0 -1 0
  outer loop
  vertex 73.6232 5.25955 -105.03
  vertex 95.9471 5.25955 -121.13
  vertex 75.8481 5.25955 -102.13
  endloop
 endfacet

 facet normal 0 -1 0
  outer loop
  vertex 70.7237 5.25955 -107.255
  vertex 95.9471 5.25955 -121.13
  vertex 73.6232 5.25955 -105.03
  endloop
 endfacet

 facet normal 0 -1 0
  outer loop
  vertex 60.1002 5.25955 -108.653
  vertex 32.4471 5.25955 -121.13
  vertex 95.9471 5.25955 -121.13
  endloop
 endfacet

 facet normal 0 -1 0
  outer loop
  vertex 60.1002 5.25955 -108.653
  vertex 95.9471 5.25955 -121.13
  vertex 63.7237 5.25955 -109.13
  endloop
 endfacet

 facet normal 0 -1 0
  outer loop
  vertex 63.7237 5.25955 -109.13
  vertex 95.9471 5.25955 -121.13
  vertex 67.3472 5.25955 -108.653
  endloop
 endfacet

 facet normal 0 -1 0
  outer loop
  vertex 67.3472 5.25955 -108.653
  vertex 95.9471 5.25955 -121.13
  vertex 70.7237 5.25955 -107.255
  endloop
 endfacet

 facet normal 0 -1 0
  outer loop
  vertex 56.7237 5.25955 -107.255
  vertex 32.4471 5.25955 -121.13
  vertex 60.1002 5.25955 -108.653
  endloop
 endfacet

 facet normal 0 -1 0
  outer loop
  vertex 50.2007 5.25955 -98.7538
  vertex 32.4471 5.25955 -121.13
  vertex 51.5993 5.25955 -102.13
  endloop
 endfacet

 facet normal 0 -1 0
  outer loop
  vertex 51.5993 5.25955 -102.13
  vertex 32.4471 5.25955 -121.13
  vertex 53.8242 5.25955 -105.03
  endloop
 endfacet

 facet normal 0 -1 0
  outer loop
  vertex 53.8242 5.25955 -105.03
  vertex 32.4471 5.25955 -121.13
  vertex 56.7237 5.25955 -107.255
  endloop
 endfacet

 facet normal 0 0 -1
  outer loop
  vertex 32.4471 5.25955 -121.13
  vertex 48.2237 12.9717 -121.13
  vertex 95.9471 5.25955 -121.13
  endloop
 endfacet

 facet normal 0 0 -1
  outer loop
  vertex 48.2237 12.9717 -121.13
  vertex 32.4471 5.25955 -121.13
  vertex 32.4471 19.1117 -121.13
  endloop
 endfacet

 facet normal 0 0 -1
  outer loop
  vertex 48.2237 12.9717 -121.13
  vertex 32.4471 19.1117 -121.13
  vertex 47.0641 13.452 -121.13
  endloop
 endfacet

 facet normal 0 0 -1
  outer loop
  vertex 79.2237 12.9717 -121.13
  vertex 95.9471 5.25955 -121.13
  vertex 48.2237 12.9717 -121.13
  endloop
 endfacet

 facet normal 0 0 -1
  outer loop
  vertex 49.3834 13.452 -121.13
  vertex 79.2237 12.9717 -121.13
  vertex 48.2237 12.9717 -121.13
  endloop
 endfacet

 facet normal 0 0 -1
  outer loop
  vertex 95.9471 5.25955 -121.13
  vertex 79.2237 12.9717 -121.13
  vertex 95.9471 19.1117 -121.13
  endloop
 endfacet

 facet normal 0 0 -1
  outer loop
  vertex 95.9471 19.1117 -121.13
  vertex 79.2237 12.9717 -121.13
  vertex 80.3834 13.452 -121.13
  endloop
 endfacet

 facet normal 0 0 -1
  outer loop
  vertex 79.2237 12.9717 -121.13
  vertex 49.3834 13.452 -121.13
  vertex 78.064 13.452 -121.13
  endloop
 endfacet

 facet normal 0 0 -1
  outer loop
  vertex 78.064 13.452 -121.13
  vertex 49.3834 13.452 -121.13
  vertex 49.8637 14.6117 -121.13
  endloop
 endfacet

 facet normal 0 0 -1
  outer loop
  vertex 78.064 13.452 -121.13
  vertex 49.8637 14.6117 -121.13
  vertex 77.5837 14.6117 -121.13
  endloop
 endfacet

 facet normal 0 0 -1
  outer loop
  vertex 77.5837 14.6117 -121.13
  vertex 49.8637 14.6117 -121.13
  vertex 49.3834 15.7713 -121.13
  endloop
 endfacet

 facet normal 0 0 -1
  outer loop
  vertex 77.5837 14.6117 -121.13
  vertex 49.3834 15.7713 -121.13
  vertex 78.064 15.7713 -121.13
  endloop
 endfacet

 facet normal 0 0 -1
  outer loop
  vertex 78.064 15.7713 -121.13
  vertex 49.3834 15.7713 -121.13
  vertex 48.2237 16.2517 -121.13
  endloop
 endfacet

 facet normal 0 0 -1
  outer loop
  vertex 78.064 15.7713 -121.13
  vertex 48.2237 16.2517 -121.13
  vertex 63.7237 16.1117 -121.13
  endloop
 endfacet

 facet normal 0 0 -1
  outer loop
  vertex 63.7237 16.1117 -121.13
  vertex 79.2237 16.2517 -121.13
  vertex 78.064 15.7713 -121.13
  endloop
 endfacet

 facet normal 0 0 -1
  outer loop
  vertex 47.0641 15.7713 -121.13
  vertex 32.4471 19.1117 -121.13
  vertex 48.2237 16.2517 -121.13
  endloop
 endfacet

 facet normal 0 0 -1
  outer loop
  vertex 48.2237 16.2517 -121.13
  vertex 32.4471 19.1117 -121.13
  vertex 60.9924 16.3807 -121.13
  endloop
 endfacet

 facet normal 0 0 -1
  outer loop
  vertex 63.7237 16.1117 -121.13
  vertex 48.2237 16.2517 -121.13
  vertex 60.9924 16.3807 -121.13
  endloop
 endfacet

 facet normal 0 0 -1
  outer loop
  vertex 79.2237 16.2517 -121.13
  vertex 63.7237 16.1117 -121.13
  vertex 66.455 16.3807 -121.13
  endloop
 endfacet

 facet normal 0 0 -1
  outer loop
  vertex 95.9471 19.1117 -121.13
  vertex 79.2237 16.2517 -121.13
  vertex 66.455 16.3807 -121.13
  endloop
 endfacet

 facet normal 0 0 -1
  outer loop
  vertex 95.9471 19.1117 -121.13
  vertex 80.3834 15.7713 -121.13
  vertex 79.2237 16.2517 -121.13
  endloop
 endfacet

 facet normal 0 0 -1
  outer loop
  vertex 95.9471 19.1117 -121.13
  vertex 66.455 16.3807 -121.13
  vertex 69.0813 17.1774 -121.13
  endloop
 endfacet

 facet normal 0 0 -1
  outer loop
  vertex 95.9471 19.1117 -121.13
  vertex 69.0813 17.1774 -121.13
  vertex 71.5017 18.4711 -121.13
  endloop
 endfacet

 facet normal 0 0 -1
  outer loop
  vertex 95.9471 19.1117 -121.13
  vertex 80.8637 14.6117 -121.13
  vertex 80.3834 15.7713 -121.13
  endloop
 endfacet

 facet normal 0 0 -1
  outer loop
  vertex 95.9471 19.1117 -121.13
  vertex 80.3834 13.452 -121.13
  vertex 80.8637 14.6117 -121.13
  endloop
 endfacet

 facet normal 0 0 -1
  outer loop
  vertex 95.9471 19.1117 -121.13
  vertex 71.5017 18.4711 -121.13
  vertex 72.2822 19.1117 -121.13
  endloop
 endfacet

 facet normal 0 0 -1
  outer loop
  vertex 60.9924 16.3807 -121.13
  vertex 32.4471 19.1117 -121.13
  vertex 58.3661 17.1774 -121.13
  endloop
 endfacet

 facet normal 0 0 -1
  outer loop
  vertex 58.3661 17.1774 -121.13
  vertex 32.4471 19.1117 -121.13
  vertex 55.9457 18.4711 -121.13
  endloop
 endfacet

 facet normal 0 0 -1
  outer loop
  vertex 55.9457 18.4711 -121.13
  vertex 32.4471 19.1117 -121.13
  vertex 55.1652 19.1117 -121.13
  endloop
 endfacet

 facet normal 0 0 -1
  outer loop
  vertex 47.0641 13.452 -121.13
  vertex 32.4471 19.1117 -121.13
  vertex 46.5837 14.6117 -121.13
  endloop
 endfacet

 facet normal 0 0 -1
  outer loop
  vertex 46.5837 14.6117 -121.13
  vertex 32.4471 19.1117 -121.13
  vertex 47.0641 15.7713 -121.13
  endloop
 endfacet

 facet normal 0 1 0
  outer loop
  vertex 32.4471 19.1117 -121.13
  vertex 32.4471 19.1117 -118.13
  vertex 55.1652 19.1117 -118.13
  endloop
 endfacet

 facet normal 0 1 0
  outer loop
  vertex 32.4471 19.1117 -121.13
  vertex 55.1652 19.1117 -118.13
  vertex 55.1652 19.1117 -121.13
  endloop
 endfacet

 facet normal -2.70902e-31 -1.29595e-31 1
  outer loop
  vertex 32.4471 19.1117 -118.13
  vertex 55.9457 18.4711 -118.13
  vertex 55.1652 19.1117 -118.13
  endloop
 endfacet

 facet normal -2.70902e-31 -1.29595e-31 1
  outer loop
  vertex 32.4471 19.1117 -118.13
  vertex 58.3661 17.1774 -118.13
  vertex 55.9457 18.4711 -118.13
  endloop
 endfacet

 facet normal -2.70902e-31 -1.29595e-31 1
  outer loop
  vertex 32.4471 19.1117 -118.13
  vertex 60.9924 16.3807 -118.13
  vertex 58.3661 17.1774 -118.13
  endloop
 endfacet

 facet normal -2.70902e-31 -1.29595e-31 1
  outer loop
  vertex 32.4471 19.1117 -118.13
  vertex 48.2237 16.2517 -118.13
  vertex 60.9924 16.3807 -118.13
  endloop
 endfacet

 facet normal -2.70902e-31 -1.29595e-31 1
  outer loop
  vertex 32.4471 19.1117 -118.13
  vertex 47.0641 15.7713 -118.13
  vertex 48.2237 16.2517 -118.13
  endloop
 endfacet

 facet normal -2.70902e-31 -1.29595e-31 1
  outer loop
  vertex 32.4471 19.1117 -118.13
  vertex 46.5837 14.6117 -118.13
  vertex 47.0641 15.7713 -118.13
  endloop
 endfacet

 facet normal -2.70902e-31 -1.29595e-31 1
  outer loop
  vertex 32.4471 14.1117 -118.13
  vertex 46.5837 14.6117 -118.13
  vertex 32.4471 19.1117 -118.13
  endloop
 endfacet

 facet normal -2.70902e-31 -1.29595e-31 1
  outer loop
  vertex 48.2237 16.2517 -118.13
  vertex 63.7237 16.1117 -118.13
  vertex 60.9924 16.3807 -118.13
  endloop
 endfacet

 facet normal -2.70902e-31 -1.29595e-31 1
  outer loop
  vertex 63.7237 16.1117 -118.13
  vertex 48.2237 16.2517 -118.13
  vertex 49.3834 15.7713 -118.13
  endloop
 endfacet

 facet normal -2.70902e-31 -1.29595e-31 1
  outer loop
  vertex 49.3834 15.7713 -118.13
  vertex 79.2237 16.2517 -118.13
  vertex 63.7237 16.1117 -118.13
  endloop
 endfacet

 facet normal -2.70902e-31 -1.29595e-31 1
  outer loop
  vertex 63.7237 16.1117 -118.13
  vertex 79.2237 16.2517 -118.13
  vertex 66.455 16.3807 -118.13
  endloop
 endfacet

 facet normal -2.70902e-31 -1.29595e-31 1
  outer loop
  vertex 49.3834 15.7713 -118.13
  vertex 78.064 15.7713 -118.13
  vertex 79.2237 16.2517 -118.13
  endloop
 endfacet

 facet normal -2.70902e-31 -1.29595e-31 1
  outer loop
  vertex 49.8637 14.6117 -118.13
  vertex 78.064 15.7713 -118.13
  vertex 49.3834 15.7713 -118.13
  endloop
 endfacet

 facet normal -2.70902e-31 -1.29595e-31 1
  outer loop
  vertex 80.3834 15.7713 -118.13
  vertex 95.9471 19.1117 -118.13
  vertex 79.2237 16.2517 -118.13
  endloop
 endfacet

 facet normal -2.70902e-31 -1.29595e-31 1
  outer loop
  vertex 79.2237 16.2517 -118.13
  vertex 95.9471 19.1117 -118.13
  vertex 66.455 16.3807 -118.13
  endloop
 endfacet

 facet normal -2.70902e-31 -1.29595e-31 1
  outer loop
  vertex 66.455 16.3807 -118.13
  vertex 95.9471 19.1117 -118.13
  vertex 69.0813 17.1774 -118.13
  endloop
 endfacet

 facet normal -2.70902e-31 -1.29595e-31 1
  outer loop
  vertex 95.9471 19.1117 -118.13
  vertex 84.8166 14.1117 -118.13
  vertex 95.9471 14.1117 -118.13
  endloop
 endfacet

 facet normal -2.70902e-31 -1.29595e-31 1
  outer loop
  vertex 84.8166 14.1117 -118.13
  vertex 95.9471 19.1117 -118.13
  vertex 80.8637 14.6117 -118.13
  endloop
 endfacet

 facet normal -2.70902e-31 -1.29595e-31 1
  outer loop
  vertex 80.8637 14.6117 -118.13
  vertex 95.9471 19.1117 -118.13
  vertex 80.3834 15.7713 -118.13
  endloop
 endfacet

 facet normal -2.70902e-31 -1.29595e-31 1
  outer loop
  vertex 69.0813 17.1774 -118.13
  vertex 95.9471 19.1117 -118.13
  vertex 71.5017 18.4711 -118.13
  endloop
 endfacet

 facet normal -2.70902e-31 -1.29595e-31 1
  outer loop
  vertex 71.5017 18.4711 -118.13
  vertex 95.9471 19.1117 -118.13
  vertex 72.2822 19.1117 -118.13
  endloop
 endfacet

 facet normal -2.70902e-31 -1.29595e-31 1
  outer loop
  vertex 79.2237 12.9717 -118.13
  vertex 84.8166 9.11168 -118.13
  vertex 84.8166 14.1117 -118.13
  endloop
 endfacet

 facet normal -2.70902e-31 -1.29595e-31 1
  outer loop
  vertex 79.2237 12.9717 -118.13
  vertex 84.8166 14.1117 -118.13
  vertex 80.3834 13.452 -118.13
  endloop
 endfacet

 facet normal -2.70902e-31 -1.29595e-31 1
  outer loop
  vertex 80.3834 13.452 -118.13
  vertex 84.8166 14.1117 -118.13
  vertex 80.8637 14.6117 -118.13
  endloop
 endfacet

 facet normal -2.70902e-31 -1.29595e-31 1
  outer loop
  vertex 48.2237 12.9717 -118.13
  vertex 42.6902 9.11168 -118.13
  vertex 79.2237 12.9717 -118.13
  endloop
 endfacet

 facet normal -2.70902e-31 -1.29595e-31 1
  outer loop
  vertex 84.8166 9.11168 -118.13
  vertex 79.2237 12.9717 -118.13
  vertex 42.6902 9.11168 -118.13
  endloop
 endfacet

 facet normal -2.70902e-31 -1.29595e-31 1
  outer loop
  vertex 78.064 13.452 -118.13
  vertex 48.2237 12.9717 -118.13
  vertex 79.2237 12.9717 -118.13
  endloop
 endfacet

 facet normal -2.70902e-31 -1.29595e-31 1
  outer loop
  vertex 42.6902 14.1117 -118.13
  vertex 48.2237 12.9717 -118.13
  vertex 47.0641 13.452 -118.13
  endloop
 endfacet

 facet normal -2.70902e-31 -1.29595e-31 1
  outer loop
  vertex 42.6902 9.11168 -118.13
  vertex 48.2237 12.9717 -118.13
  vertex 42.6902 14.1117 -118.13
  endloop
 endfacet

 facet normal -2.70902e-31 -1.29595e-31 1
  outer loop
  vertex 48.2237 12.9717 -118.13
  vertex 78.064 13.452 -118.13
  vertex 49.3834 13.452 -118.13
  endloop
 endfacet

 facet normal -2.70902e-31 -1.29595e-31 1
  outer loop
  vertex 49.3834 13.452 -118.13
  vertex 78.064 13.452 -118.13
  vertex 77.5837 14.6117 -118.13
  endloop
 endfacet

 facet normal -2.70902e-31 -1.29595e-31 1
  outer loop
  vertex 49.3834 13.452 -118.13
  vertex 77.5837 14.6117 -118.13
  vertex 49.8637 14.6117 -118.13
  endloop
 endfacet

 facet normal -2.70902e-31 -1.29595e-31 1
  outer loop
  vertex 49.8637 14.6117 -118.13
  vertex 77.5837 14.6117 -118.13
  vertex 78.064 15.7713 -118.13
  endloop
 endfacet

 facet normal -2.70902e-31 -1.29595e-31 1
  outer loop
  vertex 42.6902 14.1117 -118.13
  vertex 46.5837 14.6117 -118.13
  vertex 32.4471 14.1117 -118.13
  endloop
 endfacet

 facet normal -2.70902e-31 -1.29595e-31 1
  outer loop
  vertex 42.6902 14.1117 -118.13
  vertex 47.0641 13.452 -118.13
  vertex 46.5837 14.6117 -118.13
  endloop
 endfacet

 facet normal -1 0 0
  outer loop
  vertex 84.8166 9.11168 -110.13
  vertex 84.8166 14.1117 -110.13
  vertex 84.8166 14.1117 -118.13
  endloop
 endfacet

 facet normal -1 0 0
  outer loop
  vertex 84.8166 9.11168 -110.13
  vertex 84.8166 14.1117 -118.13
  vertex 84.8166 9.11168 -118.13
  endloop
 endfacet

 facet normal 0 0 1
  outer loop
  vertex 84.8166 9.11168 -110.13
  vertex 95.9471 9.11168 -110.13
  vertex 95.9471 14.1117 -110.13
  endloop
 endfacet

 facet normal 0 0 1
  outer loop
  vertex 84.8166 9.11168 -110.13
  vertex 95.9471 14.1117 -110.13
  vertex 84.8166 14.1117 -110.13
  endloop
 endfacet

 facet normal 0 1 0
  outer loop
  vertex 84.8166 9.11168 -110.13
  vertex 84.8225 9.11168 -20.1303
  vertex 95.9471 9.11168 -110.13
  endloop
 endfacet

 facet normal 0 1 0
  outer loop
  vertex 84.8166 9.11168 -110.13
  vertex 84.8225 9.11168 -12.1303
  vertex 84.8225 9.11168 -20.1303
  endloop
 endfacet

 facet normal 0 1 0
  outer loop
  vertex 77.7237 9.11168 -95.1303
  vertex 84.8225 9.11168 -12.1303
  vertex 84.8166 9.11168 -110.13
  endloop
 endfacet

 facet normal 0 1 0
  outer loop
  vertex 84.8166 9.11168 -118.13
  vertex 77.7237 9.11168 -95.1303
  vertex 84.8166 9.11168 -110.13
  endloop
 endfacet

 facet normal 0 1 0
  outer loop
  vertex 95.9471 9.11168 -110.13
  vertex 84.8225 9.11168 -20.1303
  vertex 95.9471 9.11168 -20.1303
  endloop
 endfacet

 facet normal 0 1 0
  outer loop
  vertex 77.7237 9.11168 -35.1303
  vertex 84.8225 9.11168 -12.1303
  vertex 77.7237 9.11168 -95.1303
  endloop
 endfacet

 facet normal 0 1 0
  outer loop
  vertex 84.8166 9.11168 -118.13
  vertex 77.2467 9.11168 -98.7538
  vertex 77.7237 9.11168 -95.1303
  endloop
 endfacet

 facet normal 0 1 0
  outer loop
  vertex 77.2467 9.11168 -91.5068
  vertex 77.7237 9.11168 -35.1303
  vertex 77.7237 9.11168 -95.1303
  endloop
 endfacet

 facet normal 0 1 0
  outer loop
  vertex 77.2467 9.11168 -31.5068
  vertex 84.8225 9.11168 -12.1303
  vertex 77.7237 9.11168 -35.1303
  endloop
 endfacet

 facet normal 0 1 0
  outer loop
  vertex 77.2467 9.11168 -91.5068
  vertex 77.2467 9.11168 -38.7538
  vertex 77.7237 9.11168 -35.1303
  endloop
 endfacet

 facet normal 0 1 0
  outer loop
  vertex 75.8481 9.11168 -88.1303
  vertex 77.2467 9.11168 -38.7538
  vertex 77.2467 9.11168 -91.5068
  endloop
 endfacet

 facet normal 0 1 0
  outer loop
  vertex 75.8481 9.11168 -88.1303
  vertex 75.8481 9.11168 -42.1303
  vertex 77.2467 9.11168 -38.7538
  endloop
 endfacet

 facet normal 0 1 0
  outer loop
  vertex 73.6232 9.11168 -85.2308
  vertex 74.7237 9.11168 -79.1303
  vertex 75.8481 9.11168 -88.1303
  endloop
 endfacet

 facet normal 0 1 0
  outer loop
  vertex 75.8481 9.11168 -88.1303
  vertex 74.7237 9.11168 -79.1303
  vertex 75.8481 9.11168 -42.1303
  endloop
 endfacet

 facet normal 0 1 0
  outer loop
  vertex 74.7237 9.11168 -51.1303
  vertex 75.8481 9.11168 -42.1303
  vertex 74.7237 9.11168 -79.1303
  endloop
 endfacet

 facet normal 0 1 0
  outer loop
  vertex 74.7237 9.11168 -51.1303
  vertex 73.6232 9.11168 -45.0298
  vertex 75.8481 9.11168 -42.1303
  endloop
 endfacet

 facet normal 0 1 0
  outer loop
  vertex 74.7237 9.11168 -51.1303
  vertex 63.7237 9.11168 -49.1303
  vertex 67.3472 9.11168 -48.6533
  endloop
 endfacet

 facet normal 0 1 0
  outer loop
  vertex 74.7237 9.11168 -51.1303
  vertex 60.1002 9.11168 -48.6533
  vertex 63.7237 9.11168 -49.1303
  endloop
 endfacet

 facet normal 0 1 0
  outer loop
  vertex 52.7237 9.11168 -51.1303
  vertex 60.1002 9.11168 -48.6533
  vertex 74.7237 9.11168 -51.1303
  endloop
 endfacet

 facet normal 0 1 0
  outer loop
  vertex 74.7237 9.11168 -51.1303
  vertex 70.7237 9.11168 -47.2547
  vertex 73.6232 9.11168 -45.0298
  endloop
 endfacet

 facet normal 0 1 0
  outer loop
  vertex 74.7237 9.11168 -51.1303
  vertex 67.3472 9.11168 -48.6533
  vertex 70.7237 9.11168 -47.2547
  endloop
 endfacet

 facet normal 0 1 0
  outer loop
  vertex 52.7237 9.11168 -51.1303
  vertex 56.7237 9.11168 -47.2547
  vertex 60.1002 9.11168 -48.6533
  endloop
 endfacet

 facet normal 0 1 0
  outer loop
  vertex 52.7237 9.11168 -79.1303
  vertex 51.5993 9.11168 -88.1303
  vertex 52.7237 9.11168 -51.1303
  endloop
 endfacet

 facet normal 0 1 0
  outer loop
  vertex 51.5993 9.11168 -88.1303
  vertex 51.5993 9.11168 -42.1303
  vertex 52.7237 9.11168 -51.1303
  endloop
 endfacet

 facet normal 0 1 0
  outer loop
  vertex 52.7237 9.11168 -51.1303
  vertex 51.5993 9.11168 -42.1303
  vertex 53.8242 9.11168 -45.0298
  endloop
 endfacet

 facet normal 0 1 0
  outer loop
  vertex 52.7237 9.11168 -51.1303
  vertex 53.8242 9.11168 -45.0298
  vertex 56.7237 9.11168 -47.2547
  endloop
 endfacet

 facet normal 0 1 0
  outer loop
  vertex 56.7237 9.11168 -83.0059
  vertex 52.7237 9.11168 -79.1303
  vertex 60.1002 9.11168 -81.6073
  endloop
 endfacet

 facet normal 0 1 0
  outer loop
  vertex 53.8242 9.11168 -85.2308
  vertex 52.7237 9.11168 -79.1303
  vertex 56.7237 9.11168 -83.0059
  endloop
 endfacet

 facet normal 0 1 0
  outer loop
  vertex 51.5993 9.11168 -88.1303
  vertex 52.7237 9.11168 -79.1303
  vertex 53.8242 9.11168 -85.2308
  endloop
 endfacet

 facet normal 0 1 0
  outer loop
  vertex 60.1002 9.11168 -81.6073
  vertex 52.7237 9.11168 -79.1303
  vertex 74.7237 9.11168 -79.1303
  endloop
 endfacet

 facet normal 0 1 0
  outer loop
  vertex 50.2007 9.11168 -91.5068
  vertex 51.5993 9.11168 -42.1303
  vertex 51.5993 9.11168 -88.1303
  endloop
 endfacet

 facet normal 0 1 0
  outer loop
  vertex 50.2007 9.11168 -91.5068
  vertex 50.2007 9.11168 -38.7538
  vertex 51.5993 9.11168 -42.1303
  endloop
 endfacet

 facet normal 0 1 0
  outer loop
  vertex 49.7237 9.11168 -95.1303
  vertex 50.2007 9.11168 -38.7538
  vertex 50.2007 9.11168 -91.5068
  endloop
 endfacet

 facet normal 0 1 0
  outer loop
  vertex 50.2007 9.11168 -38.7538
  vertex 49.7237 9.11168 -95.1303
  vertex 49.7237 9.11168 -35.1303
  endloop
 endfacet

 facet normal 0 1 0
  outer loop
  vertex 49.7237 9.11168 -95.1303
  vertex 42.6902 9.11168 -118.13
  vertex 49.7237 9.11168 -35.1303
  endloop
 endfacet

 facet normal 0 1 0
  outer loop
  vertex 50.2007 9.11168 -98.7538
  vertex 42.6902 9.11168 -118.13
  vertex 49.7237 9.11168 -95.1303
  endloop
 endfacet

 facet normal 0 1 0
  outer loop
  vertex 42.666 9.11168 -20.1303
  vertex 49.7237 9.11168 -35.1303
  vertex 42.6902 9.11168 -110.13
  endloop
 endfacet

 facet normal 0 1 0
  outer loop
  vertex 42.666 9.11168 -20.1303
  vertex 50.2007 9.11168 -31.5068
  vertex 49.7237 9.11168 -35.1303
  endloop
 endfacet

 facet normal 0 1 0
  outer loop
  vertex 42.6902 9.11168 -110.13
  vertex 49.7237 9.11168 -35.1303
  vertex 42.6902 9.11168 -118.13
  endloop
 endfacet

 facet normal 0 1 0
  outer loop
  vertex 32.4471 9.11168 -110.13
  vertex 42.666 9.11168 -20.1303
  vertex 42.6902 9.11168 -110.13
  endloop
 endfacet

 facet normal 0 1 0
  outer loop
  vertex 42.666 9.11168 -20.1303
  vertex 32.4471 9.11168 -110.13
  vertex 32.4471 9.11168 -20.1303
  endloop
 endfacet

 facet normal 0 1 0
  outer loop
  vertex 42.666 9.11168 -20.1303
  vertex 84.8225 9.11168 -12.1303
  vertex 60.1002 9.11168 -21.6073
  endloop
 endfacet

 facet normal 0 1 0
  outer loop
  vertex 84.8225 9.11168 -12.1303
  vertex 42.666 9.11168 -20.1303
  vertex 42.666 9.11168 -12.1303
  endloop
 endfacet

 facet normal 0 1 0
  outer loop
  vertex 42.666 9.11168 -20.1303
  vertex 51.5993 9.11168 -28.1303
  vertex 50.2007 9.11168 -31.5068
  endloop
 endfacet

 facet normal 0 1 0
  outer loop
  vertex 42.666 9.11168 -20.1303
  vertex 53.8242 9.11168 -25.2308
  vertex 51.5993 9.11168 -28.1303
  endloop
 endfacet

 facet normal 0 1 0
  outer loop
  vertex 42.666 9.11168 -20.1303
  vertex 56.7237 9.11168 -23.0059
  vertex 53.8242 9.11168 -25.2308
  endloop
 endfacet

 facet normal 0 1 0
  outer loop
  vertex 42.666 9.11168 -20.1303
  vertex 60.1002 9.11168 -21.6073
  vertex 56.7237 9.11168 -23.0059
  endloop
 endfacet

 facet normal 0 1 0
  outer loop
  vertex 60.1002 9.11168 -21.6073
  vertex 84.8225 9.11168 -12.1303
  vertex 63.7237 9.11168 -21.1303
  endloop
 endfacet

 facet normal 0 1 0
  outer loop
  vertex 63.7237 9.11168 -21.1303
  vertex 84.8225 9.11168 -12.1303
  vertex 67.3472 9.11168 -21.6073
  endloop
 endfacet

 facet normal 0 1 0
  outer loop
  vertex 67.3472 9.11168 -21.6073
  vertex 84.8225 9.11168 -12.1303
  vertex 70.7237 9.11168 -23.0059
  endloop
 endfacet

 facet normal 0 1 0
  outer loop
  vertex 70.7237 9.11168 -23.0059
  vertex 84.8225 9.11168 -12.1303
  vertex 73.6232 9.11168 -25.2308
  endloop
 endfacet

 facet normal 0 1 0
  outer loop
  vertex 73.6232 9.11168 -25.2308
  vertex 84.8225 9.11168 -12.1303
  vertex 75.8481 9.11168 -28.1303
  endloop
 endfacet

 facet normal 0 1 0
  outer loop
  vertex 75.8481 9.11168 -28.1303
  vertex 84.8225 9.11168 -12.1303
  vertex 77.2467 9.11168 -31.5068
  endloop
 endfacet

 facet normal 0 1 0
  outer loop
  vertex 60.1002 9.11168 -108.653
  vertex 42.6902 9.11168 -118.13
  vertex 56.7237 9.11168 -107.255
  endloop
 endfacet

 facet normal 0 1 0
  outer loop
  vertex 42.6902 9.11168 -118.13
  vertex 60.1002 9.11168 -108.653
  vertex 84.8166 9.11168 -118.13
  endloop
 endfacet

 facet normal 0 1 0
  outer loop
  vertex 51.5993 9.11168 -102.13
  vertex 42.6902 9.11168 -118.13
  vertex 50.2007 9.11168 -98.7538
  endloop
 endfacet

 facet normal 0 1 0
  outer loop
  vertex 53.8242 9.11168 -105.03
  vertex 42.6902 9.11168 -118.13
  vertex 51.5993 9.11168 -102.13
  endloop
 endfacet

 facet normal 0 1 0
  outer loop
  vertex 56.7237 9.11168 -107.255
  vertex 42.6902 9.11168 -118.13
  vertex 53.8242 9.11168 -105.03
  endloop
 endfacet

 facet normal 0 1 0
  outer loop
  vertex 84.8166 9.11168 -118.13
  vertex 60.1002 9.11168 -108.653
  vertex 63.7237 9.11168 -109.13
  endloop
 endfacet

 facet normal 0 1 0
  outer loop
  vertex 84.8166 9.11168 -118.13
  vertex 63.7237 9.11168 -109.13
  vertex 67.3472 9.11168 -108.653
  endloop
 endfacet

 facet normal 0 1 0
  outer loop
  vertex 84.8166 9.11168 -118.13
  vertex 67.3472 9.11168 -108.653
  vertex 70.7237 9.11168 -107.255
  endloop
 endfacet

 facet normal 0 1 0
  outer loop
  vertex 84.8166 9.11168 -118.13
  vertex 70.7237 9.11168 -107.255
  vertex 73.6232 9.11168 -105.03
  endloop
 endfacet

 facet normal 0 1 0
  outer loop
  vertex 84.8166 9.11168 -118.13
  vertex 73.6232 9.11168 -105.03
  vertex 75.8481 9.11168 -102.13
  endloop
 endfacet

 facet normal 0 1 0
  outer loop
  vertex 84.8166 9.11168 -118.13
  vertex 75.8481 9.11168 -102.13
  vertex 77.2467 9.11168 -98.7538
  endloop
 endfacet

 facet normal 0 1 0
  outer loop
  vertex 60.1002 9.11168 -81.6073
  vertex 74.7237 9.11168 -79.1303
  vertex 63.7237 9.11168 -81.1303
  endloop
 endfacet

 facet normal 0 1 0
  outer loop
  vertex 63.7237 9.11168 -81.1303
  vertex 74.7237 9.11168 -79.1303
  vertex 67.3472 9.11168 -81.6073
  endloop
 endfacet

 facet normal 0 1 0
  outer loop
  vertex 67.3472 9.11168 -81.6073
  vertex 74.7237 9.11168 -79.1303
  vertex 70.7237 9.11168 -83.0059
  endloop
 endfacet

 facet normal 0 1 0
  outer loop
  vertex 70.7237 9.11168 -83.0059
  vertex 74.7237 9.11168 -79.1303
  vertex 73.6232 9.11168 -85.2308
  endloop
 endfacet

 facet normal 1 0 0
  outer loop
  vertex 42.666 14.1117 -12.1303
  vertex 42.666 9.11168 -12.1303
  vertex 42.666 9.11168 -20.1303
  endloop
 endfacet

 facet normal 1 0 0
  outer loop
  vertex 42.666 14.1117 -12.1303
  vertex 42.666 9.11168 -20.1303
  vertex 42.666 14.1117 -20.1303
  endloop
 endfacet

 facet normal -0.382667 0.923886 0
  outer loop
  vertex 79.2237 12.9717 -12.1303
  vertex 79.2237 12.9717 -9.13034
  vertex 80.3834 13.452 -9.13034
  endloop
 endfacet

 facet normal -0.382667 0.923886 0
  outer loop
  vertex 79.2237 12.9717 -12.1303
  vertex 80.3834 13.452 -9.13034
  vertex 80.3834 13.452 -12.1303
  endloop
 endfacet

 facet normal 0.382667 0.923886 0
  outer loop
  vertex 78.064 13.452 -12.1303
  vertex 78.064 13.452 -9.13034
  vertex 79.2237 12.9717 -9.13034
  endloop
 endfacet

 facet normal 0.382667 0.923886 0
  outer loop
  vertex 78.064 13.452 -12.1303
  vertex 79.2237 12.9717 -9.13034
  vertex 79.2237 12.9717 -12.1303
  endloop
 endfacet

 facet normal 0.923893 0.382652 0
  outer loop
  vertex 77.5837 14.6117 -9.13034
  vertex 78.064 13.452 -9.13034
  vertex 78.064 13.452 -12.1303
  endloop
 endfacet

 facet normal 0.923893 0.382652 0
  outer loop
  vertex 77.5837 14.6117 -9.13034
  vertex 78.064 13.452 -12.1303
  vertex 77.5837 14.6117 -12.1303
  endloop
 endfacet

 facet normal -0.382667 0.923886 0
  outer loop
  vertex 49.3834 13.452 -9.13034
  vertex 49.3834 13.452 -12.1303
  vertex 48.2237 12.9717 -12.1303
  endloop
 endfacet

 facet normal -0.382667 0.923886 0
  outer loop
  vertex 49.3834 13.452 -9.13034
  vertex 48.2237 12.9717 -12.1303
  vertex 48.2237 12.9717 -9.13034
  endloop
 endfacet

 facet normal -0.923893 0.382652 0
  outer loop
  vertex 49.3834 13.452 -9.13034
  vertex 49.8637 14.6117 -9.13034
  vertex 49.8637 14.6117 -12.1303
  endloop
 endfacet

 facet normal -0.923893 0.382652 0
  outer loop
  vertex 49.3834 13.452 -9.13034
  vertex 49.8637 14.6117 -12.1303
  vertex 49.3834 13.452 -12.1303
  endloop
 endfacet

 facet normal 0.923892 -0.382654 0
  outer loop
  vertex 77.5837 14.6117 -12.1303
  vertex 78.064 15.7713 -12.1303
  vertex 78.064 15.7713 -9.13034
  endloop
 endfacet

 facet normal 0.923892 -0.382654 0
  outer loop
  vertex 77.5837 14.6117 -12.1303
  vertex 78.064 15.7713 -9.13034
  vertex 77.5837 14.6117 -9.13034
  endloop
 endfacet

 facet normal -0.923892 -0.382654 0
  outer loop
  vertex 49.3834 15.7713 -12.1303
  vertex 49.8637 14.6117 -12.1303
  vertex 49.8637 14.6117 -9.13034
  endloop
 endfacet

 facet normal -0.923892 -0.382654 0
  outer loop
  vertex 49.3834 15.7713 -12.1303
  vertex 49.8637 14.6117 -9.13034
  vertex 49.3834 15.7713 -9.13034
  endloop
 endfacet

 facet normal 0.382674 -0.923883 0
  outer loop
  vertex 79.2237 16.2517 -12.1303
  vertex 79.2237 16.2517 -9.13034
  vertex 78.064 15.7713 -9.13034
  endloop
 endfacet

 facet normal 0.382674 -0.923883 0
  outer loop
  vertex 79.2237 16.2517 -12.1303
  vertex 78.064 15.7713 -9.13034
  vertex 78.064 15.7713 -12.1303
  endloop
 endfacet

 facet normal -0.382674 -0.923883 0
  outer loop
  vertex 80.3834 15.7713 -12.1303
  vertex 80.3834 15.7713 -9.13034
  vertex 79.2237 16.2517 -9.13034
  endloop
 endfacet

 facet normal -0.382674 -0.923883 0
  outer loop
  vertex 80.3834 15.7713 -12.1303
  vertex 79.2237 16.2517 -9.13034
  vertex 79.2237 16.2517 -12.1303
  endloop
 endfacet

 facet normal -0.923892 -0.382654 0
  outer loop
  vertex 80.8637 14.6117 -9.13034
  vertex 80.3834 15.7713 -9.13034
  vertex 80.3834 15.7713 -12.1303
  endloop
 endfacet

 facet normal -0.923892 -0.382654 0
  outer loop
  vertex 80.8637 14.6117 -9.13034
  vertex 80.3834 15.7713 -12.1303
  vertex 80.8637 14.6117 -12.1303
  endloop
 endfacet

 facet normal -0.923893 0.382652 0
  outer loop
  vertex 80.8637 14.6117 -12.1303
  vertex 80.3834 13.452 -12.1303
  vertex 80.3834 13.452 -9.13034
  endloop
 endfacet

 facet normal -0.923893 0.382652 0
  outer loop
  vertex 80.8637 14.6117 -12.1303
  vertex 80.3834 13.452 -9.13034
  vertex 80.8637 14.6117 -9.13034
  endloop
 endfacet

 facet normal -0.382674 -0.923883 0
  outer loop
  vertex 49.3834 15.7713 -12.1303
  vertex 49.3834 15.7713 -9.13034
  vertex 48.2237 16.2517 -9.13034
  endloop
 endfacet

 facet normal -0.382674 -0.923883 0
  outer loop
  vertex 49.3834 15.7713 -12.1303
  vertex 48.2237 16.2517 -9.13034
  vertex 48.2237 16.2517 -12.1303
  endloop
 endfacet

 facet normal 0.382679 0.923881 0
  outer loop
  vertex 47.0641 13.452 -12.1303
  vertex 47.0641 13.452 -9.13034
  vertex 48.2237 12.9717 -9.13034
  endloop
 endfacet

 facet normal 0.382679 0.923881 0
  outer loop
  vertex 47.0641 13.452 -12.1303
  vertex 48.2237 12.9717 -9.13034
  vertex 48.2237 12.9717 -12.1303
  endloop
 endfacet

 facet normal 0.923881 0.382679 0
  outer loop
  vertex 46.5837 14.6117 -9.13034
  vertex 47.0641 13.452 -9.13034
  vertex 47.0641 13.452 -12.1303
  endloop
 endfacet

 facet normal 0.923881 0.382679 0
  outer loop
  vertex 46.5837 14.6117 -9.13034
  vertex 47.0641 13.452 -12.1303
  vertex 46.5837 14.6117 -12.1303
  endloop
 endfacet

 facet normal 0.92388 -0.382682 0
  outer loop
  vertex 46.5837 14.6117 -12.1303
  vertex 47.0641 15.7713 -12.1303
  vertex 47.0641 15.7713 -9.13034
  endloop
 endfacet

 facet normal 0.92388 -0.382682 0
  outer loop
  vertex 46.5837 14.6117 -12.1303
  vertex 47.0641 15.7713 -9.13034
  vertex 46.5837 14.6117 -9.13034
  endloop
 endfacet

 facet normal 0.382686 -0.923879 0
  outer loop
  vertex 48.2237 16.2517 -12.1303
  vertex 48.2237 16.2517 -9.13034
  vertex 47.0641 15.7713 -9.13034
  endloop
 endfacet

 facet normal 0.382686 -0.923879 0
  outer loop
  vertex 48.2237 16.2517 -12.1303
  vertex 47.0641 15.7713 -9.13034
  vertex 47.0641 15.7713 -12.1303
  endloop
 endfacet

 facet normal 0.500091 0.865973 0
  outer loop
  vertex 55.9457 18.4711 -12.1303
  vertex 55.9457 18.4711 -9.13034
  vertex 58.3661 17.1774 -9.13034
  endloop
 endfacet

 facet normal 0.442209 0.896912 0
  outer loop
  vertex 55.9457 18.4711 -12.1303
  vertex 58.3661 17.1774 -9.13034
  vertex 58.3661 17.1774 -12.1303
  endloop
 endfacet

 facet normal 0.6088 0.793324 0
  outer loop
  vertex 55.1652 19.1117 -12.1303
  vertex 55.1652 19.1117 -9.13034
  vertex 55.9457 18.4711 -9.13034
  endloop
 endfacet

 facet normal 0.58249 0.812838 0
  outer loop
  vertex 55.1652 19.1117 -12.1303
  vertex 55.9457 18.4711 -9.13034
  vertex 55.9457 18.4711 -12.1303
  endloop
 endfacet

 facet normal 0 1 0
  outer loop
  vertex 32.4471 19.1117 -12.1303
  vertex 32.4471 19.1117 -9.13034
  vertex 55.1652 19.1117 -9.13034
  endloop
 endfacet

 facet normal 0 1 0
  outer loop
  vertex 32.4471 19.1117 -12.1303
  vertex 55.1652 19.1117 -9.13034
  vertex 55.1652 19.1117 -12.1303
  endloop
 endfacet

 facet normal 0 1 0
  outer loop
  vertex 72.2822 19.1117 -12.1303
  vertex 72.2822 19.1117 -9.13034
  vertex 95.9471 19.1117 -9.13034
  endloop
 endfacet

 facet normal 0 1 0
  outer loop
  vertex 72.2822 19.1117 -12.1303
  vertex 95.9471 19.1117 -9.13034
  vertex 95.9471 19.1117 -12.1303
  endloop
 endfacet

 facet normal -0.58249 0.812838 0
  outer loop
  vertex 71.5017 18.4711 -12.1303
  vertex 71.5017 18.4711 -9.13034
  vertex 72.2822 19.1117 -9.13034
  endloop
 endfacet

 facet normal -0.6088 0.793324 0
  outer loop
  vertex 71.5017 18.4711 -12.1303
  vertex 72.2822 19.1117 -9.13034
  vertex 72.2822 19.1117 -12.1303
  endloop
 endfacet

 facet normal -0.442209 0.896912 0
  outer loop
  vertex 69.0813 17.1774 -12.1303
  vertex 69.0813 17.1774 -9.13034
  vertex 71.5017 18.4711 -9.13034
  endloop
 endfacet

 facet normal -0.500091 0.865973 0
  outer loop
  vertex 69.0813 17.1774 -12.1303
  vertex 71.5017 18.4711 -9.13034
  vertex 71.5017 18.4711 -12.1303
  endloop
 endfacet

 facet normal -0.321528 0.9469 0
  outer loop
  vertex 69.0813 17.1774 -9.13034
  vertex 69.0813 17.1774 -12.1303
  vertex 66.455 16.3807 -12.1303
  endloop
 endfacet

 facet normal -0.258729 0.96595 0
  outer loop
  vertex 69.0813 17.1774 -9.13034
  vertex 66.455 16.3807 -12.1303
  vertex 66.455 16.3807 -9.13034
  endloop
 endfacet

 facet normal -0.0653101 0.997865 0
  outer loop
  vertex 63.7237 16.1117 -12.1303
  vertex 63.7237 16.1117 -9.13034
  vertex 66.455 16.3807 -9.13034
  endloop
 endfacet

 facet normal -0.13062 0.991432 0
  outer loop
  vertex 63.7237 16.1117 -12.1303
  vertex 66.455 16.3807 -9.13034
  vertex 66.455 16.3807 -12.1303
  endloop
 endfacet

 facet normal 0 1 0
  outer loop
  vertex 84.8225 14.1117 -20.1303
  vertex 84.8225 14.1117 -12.1303
  vertex 95.9471 14.1117 -12.1303
  endloop
 endfacet

 facet normal 0 1 0
  outer loop
  vertex 84.8225 14.1117 -20.1303
  vertex 95.9471 14.1117 -12.1303
  vertex 95.9471 14.1117 -20.1303
  endloop
 endfacet

 facet normal -1 0 0
  outer loop
  vertex 84.8225 9.11168 -12.1303
  vertex 84.8225 14.1117 -12.1303
  vertex 84.8225 14.1117 -20.1303
  endloop
 endfacet

 facet normal -1 0 0
  outer loop
  vertex 84.8225 9.11168 -12.1303
  vertex 84.8225 14.1117 -20.1303
  vertex 84.8225 9.11168 -20.1303
  endloop
 endfacet

 facet normal 0 0 -1
  outer loop
  vertex 84.8225 14.1117 -20.1303
  vertex 95.9471 14.1117 -20.1303
  vertex 95.9471 9.11168 -20.1303
  endloop
 endfacet

 facet normal 0 0 -1
  outer loop
  vertex 84.8225 14.1117 -20.1303
  vertex 95.9471 9.11168 -20.1303
  vertex 84.8225 9.11168 -20.1303
  endloop
 endfacet

 facet normal 0 0 -1
  outer loop
  vertex 32.4471 14.1117 -20.1303
  vertex 42.666 14.1117 -20.1303
  vertex 42.666 9.11168 -20.1303
  endloop
 endfacet

 facet normal 0 0 -1
  outer loop
  vertex 32.4471 14.1117 -20.1303
  vertex 42.666 9.11168 -20.1303
  vertex 32.4471 9.11168 -20.1303
  endloop
 endfacet

 facet normal 0.422821 0 -0.906213
  outer loop
  vertex 60.1002 5.25955 -21.6073
  vertex 56.7237 5.25955 -23.0059
  vertex 56.7237 9.11168 -23.0059
  endloop
 endfacet

 facet normal 0.341809 0 -0.93977
  outer loop
  vertex 60.1002 5.25955 -21.6073
  vertex 56.7237 9.11168 -23.0059
  vertex 60.1002 9.11168 -21.6073
  endloop
 endfacet

 facet normal 0.642959 0 -0.7659
  outer loop
  vertex 56.7237 5.25955 -23.0059
  vertex 53.8242 5.25955 -25.2308
  vertex 53.8242 9.11168 -25.2308
  endloop
 endfacet

 facet normal 0.573397 0 -0.819278
  outer loop
  vertex 56.7237 5.25955 -23.0059
  vertex 53.8242 9.11168 -25.2308
  vertex 56.7237 9.11168 -23.0059
  endloop
 endfacet

 facet normal 0.7659 0 -0.642959
  outer loop
  vertex 53.8242 9.11168 -25.2308
  vertex 53.8242 5.25955 -25.2308
  vertex 51.5993 5.25955 -28.1303
  endloop
 endfacet

 facet normal 0.819278 0 -0.573397
  outer loop
  vertex 53.8242 9.11168 -25.2308
  vertex 51.5993 5.25955 -28.1303
  vertex 51.5993 9.11168 -28.1303
  endloop
 endfacet

 facet normal 0.939769 0 -0.341809
  outer loop
  vertex 50.2007 5.25955 -31.5068
  vertex 50.2007 9.11168 -31.5068
  vertex 51.5993 9.11168 -28.1303
  endloop
 endfacet

 facet normal 0.906213 0 -0.422821
  outer loop
  vertex 50.2007 5.25955 -31.5068
  vertex 51.5993 9.11168 -28.1303
  vertex 51.5993 5.25955 -28.1303
  endloop
 endfacet

 facet normal 0.98477 0 -0.173864
  outer loop
  vertex 50.2007 9.11168 -31.5068
  vertex 50.2007 5.25955 -31.5068
  vertex 49.7237 5.25955 -35.1303
  endloop
 endfacet

 facet normal 0.996214 0 -0.0869321
  outer loop
  vertex 50.2007 9.11168 -31.5068
  vertex 49.7237 5.25955 -35.1303
  vertex 49.7237 9.11168 -35.1303
  endloop
 endfacet

 facet normal 0.98477 0 0.173864
  outer loop
  vertex 50.2007 5.25955 -38.7538
  vertex 50.2007 9.11168 -38.7538
  vertex 49.7237 9.11168 -35.1303
  endloop
 endfacet

 facet normal 0.996214 0 0.0869321
  outer loop
  vertex 50.2007 5.25955 -38.7538
  vertex 49.7237 9.11168 -35.1303
  vertex 49.7237 5.25955 -35.1303
  endloop
 endfacet

 facet normal 0.906213 0 0.422821
  outer loop
  vertex 51.5993 5.25955 -42.1303
  vertex 51.5993 9.11168 -42.1303
  vertex 50.2007 9.11168 -38.7538
  endloop
 endfacet

 facet normal 0.93977 0 0.341809
  outer loop
  vertex 51.5993 5.25955 -42.1303
  vertex 50.2007 9.11168 -38.7538
  vertex 50.2007 5.25955 -38.7538
  endloop
 endfacet

 facet normal 0.7659 0 0.642959
  outer loop
  vertex 53.8242 5.25955 -45.0298
  vertex 53.8242 9.11168 -45.0298
  vertex 51.5993 9.11168 -42.1303
  endloop
 endfacet

 facet normal 0.819278 0 0.573397
  outer loop
  vertex 53.8242 5.25955 -45.0298
  vertex 51.5993 9.11168 -42.1303
  vertex 51.5993 5.25955 -42.1303
  endloop
 endfacet

 facet normal 0.573397 0 0.819278
  outer loop
  vertex 53.8242 5.25955 -45.0298
  vertex 56.7237 5.25955 -47.2547
  vertex 56.7237 9.11168 -47.2547
  endloop
 endfacet

 facet normal 0.642959 0 0.7659
  outer loop
  vertex 53.8242 5.25955 -45.0298
  vertex 56.7237 9.11168 -47.2547
  vertex 53.8242 9.11168 -45.0298
  endloop
 endfacet

 facet normal 0.996214 -1.34188e-30 -0.0869321
  outer loop
  vertex 49.7237 5.25955 -95.1303
  vertex 49.7237 9.11168 -95.1303
  vertex 50.2007 9.11168 -91.5068
  endloop
 endfacet

 facet normal 0.98477 -2.68376e-30 -0.173864
  outer loop
  vertex 49.7237 5.25955 -95.1303
  vertex 50.2007 9.11168 -91.5068
  vertex 50.2007 5.25955 -91.5068
  endloop
 endfacet

 facet normal 0.98477 -2.68376e-30 0.173864
  outer loop
  vertex 50.2007 5.25955 -98.7538
  vertex 50.2007 9.11168 -98.7538
  vertex 49.7237 9.11168 -95.1303
  endloop
 endfacet

 facet normal 0.996214 -1.34188e-30 0.0869321
  outer loop
  vertex 50.2007 5.25955 -98.7538
  vertex 49.7237 9.11168 -95.1303
  vertex 49.7237 5.25955 -95.1303
  endloop
 endfacet

 facet normal 0.939769 -4.02565e-30 0.341809
  outer loop
  vertex 50.2007 9.11168 -98.7538
  vertex 50.2007 5.25955 -98.7538
  vertex 51.5993 5.25955 -102.13
  endloop
 endfacet

 facet normal 0.906213 -4.02565e-30 0.422821
  outer loop
  vertex 50.2007 9.11168 -98.7538
  vertex 51.5993 5.25955 -102.13
  vertex 51.5993 9.11168 -102.13
  endloop
 endfacet

 facet normal 0.819278 -2.68376e-30 0.573397
  outer loop
  vertex 51.5993 9.11168 -102.13
  vertex 51.5993 5.25955 -102.13
  vertex 53.8242 5.25955 -105.03
  endloop
 endfacet

 facet normal 0.7659 -1.34188e-30 0.642959
  outer loop
  vertex 51.5993 9.11168 -102.13
  vertex 53.8242 5.25955 -105.03
  vertex 53.8242 9.11168 -105.03
  endloop
 endfacet

 facet normal 0.573397 0 0.819278
  outer loop
  vertex 53.8242 5.25955 -105.03
  vertex 56.7237 5.25955 -107.255
  vertex 56.7237 9.11168 -107.255
  endloop
 endfacet

 facet normal 0.642959 0 0.7659
  outer loop
  vertex 53.8242 5.25955 -105.03
  vertex 56.7237 9.11168 -107.255
  vertex 53.8242 9.11168 -105.03
  endloop
 endfacet

 facet normal 0.422821 0 0.906213
  outer loop
  vertex 60.1002 9.11168 -108.653
  vertex 56.7237 9.11168 -107.255
  vertex 56.7237 5.25955 -107.255
  endloop
 endfacet

 facet normal 0.341809 0 0.93977
  outer loop
  vertex 60.1002 9.11168 -108.653
  vertex 56.7237 5.25955 -107.255
  vertex 60.1002 5.25955 -108.653
  endloop
 endfacet

 facet normal 0.173864 0 0.98477
  outer loop
  vertex 63.7237 9.11168 -109.13
  vertex 60.1002 9.11168 -108.653
  vertex 60.1002 5.25955 -108.653
  endloop
 endfacet

 facet normal 0.0869321 0 0.996214
  outer loop
  vertex 63.7237 9.11168 -109.13
  vertex 60.1002 5.25955 -108.653
  vertex 63.7237 5.25955 -109.13
  endloop
 endfacet

 facet normal 0.341809 0 -0.93977
  outer loop
  vertex 56.7237 9.11168 -83.0059
  vertex 60.1002 9.11168 -81.6073
  vertex 60.1002 5.25955 -81.6073
  endloop
 endfacet

 facet normal 0.422821 0 -0.906213
  outer loop
  vertex 56.7237 9.11168 -83.0059
  vertex 60.1002 5.25955 -81.6073
  vertex 56.7237 5.25955 -83.0059
  endloop
 endfacet

 facet normal 1 0 0
  outer loop
  vertex 42.6902 9.11168 -118.13
  vertex 42.6902 14.1117 -118.13
  vertex 42.6902 14.1117 -110.13
  endloop
 endfacet

 facet normal 1 0 0
  outer loop
  vertex 42.6902 9.11168 -118.13
  vertex 42.6902 14.1117 -110.13
  vertex 42.6902 9.11168 -110.13
  endloop
 endfacet

 facet normal 0 1 0
  outer loop
  vertex 32.4471 14.1117 -118.13
  vertex 32.4471 14.1117 -110.13
  vertex 42.6902 14.1117 -110.13
  endloop
 endfacet

 facet normal 0 1 0
  outer loop
  vertex 32.4471 14.1117 -118.13
  vertex 42.6902 14.1117 -110.13
  vertex 42.6902 14.1117 -118.13
  endloop
 endfacet

 facet normal 0 0 1
  outer loop
  vertex 32.4471 9.11168 -110.13
  vertex 42.6902 9.11168 -110.13
  vertex 42.6902 14.1117 -110.13
  endloop
 endfacet

 facet normal 0 0 1
  outer loop
  vertex 32.4471 9.11168 -110.13
  vertex 42.6902 14.1117 -110.13
  vertex 32.4471 14.1117 -110.13
  endloop
 endfacet

 facet normal 0.906213 -4.02565e-30 -0.422821
  outer loop
  vertex 51.5993 9.11168 -88.1303
  vertex 51.5993 5.25955 -88.1303
  vertex 50.2007 5.25955 -91.5068
  endloop
 endfacet

 facet normal 0.93977 -4.02565e-30 -0.341809
  outer loop
  vertex 51.5993 9.11168 -88.1303
  vertex 50.2007 5.25955 -91.5068
  vertex 50.2007 9.11168 -91.5068
  endloop
 endfacet

 facet normal 0.819278 -2.68376e-30 -0.573397
  outer loop
  vertex 51.5993 5.25955 -88.1303
  vertex 51.5993 9.11168 -88.1303
  vertex 53.8242 9.11168 -85.2308
  endloop
 endfacet

 facet normal 0.7659 -1.34188e-30 -0.642959
  outer loop
  vertex 51.5993 5.25955 -88.1303
  vertex 53.8242 9.11168 -85.2308
  vertex 53.8242 5.25955 -85.2308
  endloop
 endfacet

 facet normal 0.642959 0 -0.7659
  outer loop
  vertex 56.7237 5.25955 -83.0059
  vertex 53.8242 5.25955 -85.2308
  vertex 53.8242 9.11168 -85.2308
  endloop
 endfacet

 facet normal 0.573397 0 -0.819278
  outer loop
  vertex 56.7237 5.25955 -83.0059
  vertex 53.8242 9.11168 -85.2308
  vertex 56.7237 9.11168 -83.0059
  endloop
 endfacet

 facet normal 0.422821 0 0.906213
  outer loop
  vertex 60.1002 9.11168 -48.6533
  vertex 56.7237 9.11168 -47.2547
  vertex 56.7237 5.25955 -47.2547
  endloop
 endfacet

 facet normal 0.341809 0 0.93977
  outer loop
  vertex 60.1002 9.11168 -48.6533
  vertex 56.7237 5.25955 -47.2547
  vertex 60.1002 5.25955 -48.6533
  endloop
 endfacet

 facet normal 0.0869321 0 0.996214
  outer loop
  vertex 60.1002 5.25955 -48.6533
  vertex 63.7237 5.25955 -49.1303
  vertex 63.7237 9.11168 -49.1303
  endloop
 endfacet

 facet normal 0.173864 0 0.98477
  outer loop
  vertex 60.1002 5.25955 -48.6533
  vertex 63.7237 9.11168 -49.1303
  vertex 60.1002 9.11168 -48.6533
  endloop
 endfacet

 facet normal -0.0869321 0 0.996214
  outer loop
  vertex 67.3472 9.11168 -48.6533
  vertex 63.7237 9.11168 -49.1303
  vertex 63.7237 5.25955 -49.1303
  endloop
 endfacet

 facet normal -0.173864 0 0.98477
  outer loop
  vertex 67.3472 9.11168 -48.6533
  vertex 63.7237 5.25955 -49.1303
  vertex 67.3472 5.25955 -48.6533
  endloop
 endfacet

 facet normal 0 0 1
  outer loop
  vertex 52.7237 9.11168 -51.1303
  vertex 74.7237 9.11168 -51.1303
  vertex 74.7237 21.1117 -51.1303
  endloop
 endfacet

 facet normal 0 0 1
  outer loop
  vertex 52.7237 9.11168 -51.1303
  vertex 74.7237 21.1117 -51.1303
  vertex 52.7237 21.1117 -51.1303
  endloop
 endfacet

 facet normal 1 0 0
  outer loop
  vertex 74.7237 9.11168 -79.1303
  vertex 74.7237 21.1117 -79.1303
  vertex 74.7237 21.1117 -51.1303
  endloop
 endfacet

 facet normal 1 0 0
  outer loop
  vertex 74.7237 9.11168 -79.1303
  vertex 74.7237 21.1117 -51.1303
  vertex 74.7237 9.11168 -51.1303
  endloop
 endfacet

 facet normal 0 0 -1
  outer loop
  vertex 74.7237 9.11168 -79.1303
  vertex 52.7237 9.11168 -79.1303
  vertex 52.7237 21.1117 -79.1303
  endloop
 endfacet

 facet normal 0 0 -1
  outer loop
  vertex 74.7237 9.11168 -79.1303
  vertex 52.7237 21.1117 -79.1303
  vertex 74.7237 21.1117 -79.1303
  endloop
 endfacet

 facet normal -0.422821 0 0.906213
  outer loop
  vertex 67.3472 5.25955 -48.6533
  vertex 70.7237 5.25955 -47.2547
  vertex 70.7237 9.11168 -47.2547
  endloop
 endfacet

 facet normal -0.341809 0 0.93977
  outer loop
  vertex 67.3472 5.25955 -48.6533
  vertex 70.7237 9.11168 -47.2547
  vertex 67.3472 9.11168 -48.6533
  endloop
 endfacet

 facet normal -0.642959 0 0.7659
  outer loop
  vertex 70.7237 5.25955 -47.2547
  vertex 73.6232 5.25955 -45.0298
  vertex 73.6232 9.11168 -45.0298
  endloop
 endfacet

 facet normal -0.573397 0 0.819278
  outer loop
  vertex 70.7237 5.25955 -47.2547
  vertex 73.6232 9.11168 -45.0298
  vertex 70.7237 9.11168 -47.2547
  endloop
 endfacet

 facet normal -0.819278 0 0.573397
  outer loop
  vertex 75.8481 5.25955 -42.1303
  vertex 75.8481 9.11168 -42.1303
  vertex 73.6232 9.11168 -45.0298
  endloop
 endfacet

 facet normal -0.7659 0 0.642959
  outer loop
  vertex 75.8481 5.25955 -42.1303
  vertex 73.6232 9.11168 -45.0298
  vertex 73.6232 5.25955 -45.0298
  endloop
 endfacet

 facet normal -0.939769 0 0.341809
  outer loop
  vertex 77.2467 5.25955 -38.7538
  vertex 77.2467 9.11168 -38.7538
  vertex 75.8481 9.11168 -42.1303
  endloop
 endfacet

 facet normal -0.906213 0 0.422821
  outer loop
  vertex 77.2467 5.25955 -38.7538
  vertex 75.8481 9.11168 -42.1303
  vertex 75.8481 5.25955 -42.1303
  endloop
 endfacet

 facet normal -0.996214 0 0.0869321
  outer loop
  vertex 77.7237 5.25955 -35.1303
  vertex 77.7237 9.11168 -35.1303
  vertex 77.2467 9.11168 -38.7538
  endloop
 endfacet

 facet normal -0.98477 0 0.173864
  outer loop
  vertex 77.7237 5.25955 -35.1303
  vertex 77.2467 9.11168 -38.7538
  vertex 77.2467 5.25955 -38.7538
  endloop
 endfacet

 facet normal -0.996214 0 -0.0869321
  outer loop
  vertex 77.7237 9.11168 -35.1303
  vertex 77.7237 5.25955 -35.1303
  vertex 77.2467 5.25955 -31.5068
  endloop
 endfacet

 facet normal -0.98477 0 -0.173864
  outer loop
  vertex 77.7237 9.11168 -35.1303
  vertex 77.2467 5.25955 -31.5068
  vertex 77.2467 9.11168 -31.5068
  endloop
 endfacet

 facet normal -0.939769 0 -0.341809
  outer loop
  vertex 77.2467 9.11168 -31.5068
  vertex 77.2467 5.25955 -31.5068
  vertex 75.8481 5.25955 -28.1303
  endloop
 endfacet

 facet normal -0.906213 0 -0.422821
  outer loop
  vertex 77.2467 9.11168 -31.5068
  vertex 75.8481 5.25955 -28.1303
  vertex 75.8481 9.11168 -28.1303
  endloop
 endfacet

 facet normal -0.7659 0 -0.642959
  outer loop
  vertex 73.6232 5.25955 -25.2308
  vertex 73.6232 9.11168 -25.2308
  vertex 75.8481 9.11168 -28.1303
  endloop
 endfacet

 facet normal -0.819278 0 -0.573397
  outer loop
  vertex 73.6232 5.25955 -25.2308
  vertex 75.8481 9.11168 -28.1303
  vertex 75.8481 5.25955 -28.1303
  endloop
 endfacet

 facet normal -0.642959 0 -0.7659
  outer loop
  vertex 70.7237 9.11168 -23.0059
  vertex 73.6232 9.11168 -25.2308
  vertex 73.6232 5.25955 -25.2308
  endloop
 endfacet

 facet normal -0.573397 0 -0.819278
  outer loop
  vertex 70.7237 9.11168 -23.0059
  vertex 73.6232 5.25955 -25.2308
  vertex 70.7237 5.25955 -23.0059
  endloop
 endfacet

 facet normal -0.422821 0 -0.906213
  outer loop
  vertex 67.3472 9.11168 -21.6073
  vertex 70.7237 9.11168 -23.0059
  vertex 70.7237 5.25955 -23.0059
  endloop
 endfacet

 facet normal -0.341809 0 -0.93977
  outer loop
  vertex 67.3472 9.11168 -21.6073
  vertex 70.7237 5.25955 -23.0059
  vertex 67.3472 5.25955 -21.6073
  endloop
 endfacet

 facet normal -0.173864 0 -0.98477
  outer loop
  vertex 63.7237 9.11168 -21.1303
  vertex 67.3472 9.11168 -21.6073
  vertex 67.3472 5.25955 -21.6073
  endloop
 endfacet

 facet normal -0.0869321 0 -0.996214
  outer loop
  vertex 63.7237 9.11168 -21.1303
  vertex 67.3472 5.25955 -21.6073
  vertex 63.7237 5.25955 -21.1303
  endloop
 endfacet

 facet normal 0.173864 0 -0.98477
  outer loop
  vertex 63.7237 5.25955 -21.1303
  vertex 60.1002 5.25955 -21.6073
  vertex 60.1002 9.11168 -21.6073
  endloop
 endfacet

 facet normal 0.0869321 0 -0.996214
  outer loop
  vertex 63.7237 5.25955 -21.1303
  vertex 60.1002 9.11168 -21.6073
  vertex 63.7237 9.11168 -21.1303
  endloop
 endfacet

 facet normal -0.939769 0 -0.341809
  outer loop
  vertex 77.2467 9.11168 -91.5068
  vertex 77.2467 5.25955 -91.5068
  vertex 75.8481 5.25955 -88.1303
  endloop
 endfacet

 facet normal -0.906213 0 -0.422821
  outer loop
  vertex 77.2467 9.11168 -91.5068
  vertex 75.8481 5.25955 -88.1303
  vertex 75.8481 9.11168 -88.1303
  endloop
 endfacet

 facet normal -0.996214 0 -0.0869321
  outer loop
  vertex 77.7237 9.11168 -95.1303
  vertex 77.7237 5.25955 -95.1303
  vertex 77.2467 5.25955 -91.5068
  endloop
 endfacet

 facet normal -0.98477 0 -0.173864
  outer loop
  vertex 77.7237 9.11168 -95.1303
  vertex 77.2467 5.25955 -91.5068
  vertex 77.2467 9.11168 -91.5068
  endloop
 endfacet

 facet normal -0.98477 0 0.173864
  outer loop
  vertex 77.2467 9.11168 -98.7538
  vertex 77.2467 5.25955 -98.7538
  vertex 77.7237 5.25955 -95.1303
  endloop
 endfacet

 facet normal -0.996214 0 0.0869321
  outer loop
  vertex 77.2467 9.11168 -98.7538
  vertex 77.7237 5.25955 -95.1303
  vertex 77.7237 9.11168 -95.1303
  endloop
 endfacet

 facet normal -0.906213 0 0.422821
  outer loop
  vertex 75.8481 9.11168 -102.13
  vertex 75.8481 5.25955 -102.13
  vertex 77.2467 5.25955 -98.7538
  endloop
 endfacet

 facet normal -0.93977 0 0.341809
  outer loop
  vertex 75.8481 9.11168 -102.13
  vertex 77.2467 5.25955 -98.7538
  vertex 77.2467 9.11168 -98.7538
  endloop
 endfacet

 facet normal -0.7659 0 0.642959
  outer loop
  vertex 73.6232 9.11168 -105.03
  vertex 73.6232 5.25955 -105.03
  vertex 75.8481 5.25955 -102.13
  endloop
 endfacet

 facet normal -0.819278 0 0.573397
  outer loop
  vertex 73.6232 9.11168 -105.03
  vertex 75.8481 5.25955 -102.13
  vertex 75.8481 9.11168 -102.13
  endloop
 endfacet

 facet normal -0.573397 0 0.819278
  outer loop
  vertex 73.6232 9.11168 -105.03
  vertex 70.7237 9.11168 -107.255
  vertex 70.7237 5.25955 -107.255
  endloop
 endfacet

 facet normal -0.642959 0 0.7659
  outer loop
  vertex 73.6232 9.11168 -105.03
  vertex 70.7237 5.25955 -107.255
  vertex 73.6232 5.25955 -105.03
  endloop
 endfacet

 facet normal -0.173864 0 0.98477
  outer loop
  vertex 63.7237 5.25955 -109.13
  vertex 67.3472 5.25955 -108.653
  vertex 67.3472 9.11168 -108.653
  endloop
 endfacet

 facet normal -0.0869321 0 0.996214
  outer loop
  vertex 63.7237 5.25955 -109.13
  vertex 67.3472 9.11168 -108.653
  vertex 63.7237 9.11168 -109.13
  endloop
 endfacet

 facet normal -0.422821 0 0.906213
  outer loop
  vertex 67.3472 5.25955 -108.653
  vertex 70.7237 5.25955 -107.255
  vertex 70.7237 9.11168 -107.255
  endloop
 endfacet

 facet normal -0.341809 0 0.93977
  outer loop
  vertex 67.3472 5.25955 -108.653
  vertex 70.7237 9.11168 -107.255
  vertex 67.3472 9.11168 -108.653
  endloop
 endfacet

 facet normal -0.7659 0 -0.642959
  outer loop
  vertex 73.6232 5.25955 -85.2308
  vertex 73.6232 9.11168 -85.2308
  vertex 75.8481 9.11168 -88.1303
  endloop
 endfacet

 facet normal -0.819278 0 -0.573397
  outer loop
  vertex 73.6232 5.25955 -85.2308
  vertex 75.8481 9.11168 -88.1303
  vertex 75.8481 5.25955 -88.1303
  endloop
 endfacet

 facet normal -0.573397 0 -0.819278
  outer loop
  vertex 73.6232 5.25955 -85.2308
  vertex 70.7237 5.25955 -83.0059
  vertex 70.7237 9.11168 -83.0059
  endloop
 endfacet

 facet normal -0.642959 0 -0.7659
  outer loop
  vertex 73.6232 5.25955 -85.2308
  vertex 70.7237 9.11168 -83.0059
  vertex 73.6232 9.11168 -85.2308
  endloop
 endfacet

 facet normal -0.341809 0 -0.93977
  outer loop
  vertex 70.7237 5.25955 -83.0059
  vertex 67.3472 5.25955 -81.6073
  vertex 67.3472 9.11168 -81.6073
  endloop
 endfacet

 facet normal -0.422821 0 -0.906213
  outer loop
  vertex 70.7237 5.25955 -83.0059
  vertex 67.3472 9.11168 -81.6073
  vertex 70.7237 9.11168 -83.0059
  endloop
 endfacet

 facet normal -0.173864 0 -0.98477
  outer loop
  vertex 63.7237 9.11168 -81.1303
  vertex 67.3472 9.11168 -81.6073
  vertex 67.3472 5.25955 -81.6073
  endloop
 endfacet

 facet normal -0.0869321 0 -0.996214
  outer loop
  vertex 63.7237 9.11168 -81.1303
  vertex 67.3472 5.25955 -81.6073
  vertex 63.7237 5.25955 -81.1303
  endloop
 endfacet

 facet normal 0.173864 0 -0.98477
  outer loop
  vertex 63.7237 5.25955 -81.1303
  vertex 60.1002 5.25955 -81.6073
  vertex 60.1002 9.11168 -81.6073
  endloop
 endfacet

 facet normal 0.0869321 0 -0.996214
  outer loop
  vertex 63.7237 5.25955 -81.1303
  vertex 60.1002 9.11168 -81.6073
  vertex 63.7237 9.11168 -81.1303
  endloop
 endfacet

 facet normal -1 0 0
  outer loop
  vertex 52.7237 9.11168 -51.1303
  vertex 52.7237 21.1117 -51.1303
  vertex 52.7237 21.1117 -79.1303
  endloop
 endfacet

 facet normal -1 0 0
  outer loop
  vertex 52.7237 9.11168 -51.1303
  vertex 52.7237 21.1117 -79.1303
  vertex 52.7237 9.11168 -79.1303
  endloop
 endfacet

 facet normal 0 1 0
  outer loop
  vertex 52.7237 21.1117 -79.1303
  vertex 52.7237 21.1117 -51.1303
  vertex 74.7237 21.1117 -51.1303
  endloop
 endfacet

 facet normal 0 1 0
  outer loop
  vertex 52.7237 21.1117 -79.1303
  vertex 74.7237 21.1117 -51.1303
  vertex 74.7237 21.1117 -79.1303
  endloop
 endfacet

 facet normal 0 1 0
  outer loop
  vertex 84.8166 14.1117 -118.13
  vertex 84.8166 14.1117 -110.13
  vertex 95.9471 14.1117 -110.13
  endloop
 endfacet

 facet normal 0 1 0
  outer loop
  vertex 84.8166 14.1117 -118.13
  vertex 95.9471 14.1117 -110.13
  vertex 95.9471 14.1117 -118.13
  endloop
 endfacet

 facet normal 0 1 0
  outer loop
  vertex 72.2822 19.1117 -121.13
  vertex 72.2822 19.1117 -118.13
  vertex 95.9471 19.1117 -118.13
  endloop
 endfacet

 facet normal 0 1 0
  outer loop
  vertex 72.2822 19.1117 -121.13
  vertex 95.9471 19.1117 -118.13
  vertex 95.9471 19.1117 -121.13
  endloop
 endfacet

 facet normal -0.58249 0.812838 0
  outer loop
  vertex 71.5017 18.4711 -121.13
  vertex 71.5017 18.4711 -118.13
  vertex 72.2822 19.1117 -118.13
  endloop
 endfacet

 facet normal -0.6088 0.793324 0
  outer loop
  vertex 71.5017 18.4711 -121.13
  vertex 72.2822 19.1117 -118.13
  vertex 72.2822 19.1117 -121.13
  endloop
 endfacet

 facet normal -0.500091 0.865973 0
  outer loop
  vertex 71.5017 18.4711 -118.13
  vertex 71.5017 18.4711 -121.13
  vertex 69.0813 17.1774 -121.13
  endloop
 endfacet

 facet normal -0.442209 0.896912 0
  outer loop
  vertex 71.5017 18.4711 -118.13
  vertex 69.0813 17.1774 -121.13
  vertex 69.0813 17.1774 -118.13
  endloop
 endfacet

 facet normal -0.923892 0.382653 -6.37755e-07
  outer loop
  vertex 49.3834 13.452 -121.13
  vertex 49.3834 13.452 -118.13
  vertex 49.8637 14.6117 -118.13
  endloop
 endfacet

 facet normal -0.923892 0.382653 -6.37755e-07
  outer loop
  vertex 49.3834 13.452 -121.13
  vertex 49.8637 14.6117 -118.13
  vertex 49.8637 14.6117 -121.13
  endloop
 endfacet

 facet normal -0.382671 0.923885 -1.53981e-06
  outer loop
  vertex 48.2237 12.9717 -121.13
  vertex 48.2237 12.9717 -118.13
  vertex 49.3834 13.452 -118.13
  endloop
 endfacet

 facet normal -0.382671 0.923885 -1.53981e-06
  outer loop
  vertex 48.2237 12.9717 -121.13
  vertex 49.3834 13.452 -118.13
  vertex 49.3834 13.452 -121.13
  endloop
 endfacet

 facet normal 0.382682 0.92388 -1.5398e-06
  outer loop
  vertex 47.0641 13.452 -121.13
  vertex 47.0641 13.452 -118.13
  vertex 48.2237 12.9717 -118.13
  endloop
 endfacet

 facet normal 0.382682 0.92388 -1.5398e-06
  outer loop
  vertex 47.0641 13.452 -121.13
  vertex 48.2237 12.9717 -118.13
  vertex 48.2237 12.9717 -121.13
  endloop
 endfacet

 facet normal 0.923881 0.38268 -6.378e-07
  outer loop
  vertex 47.0641 13.452 -121.13
  vertex 46.5837 14.6117 -121.13
  vertex 46.5837 14.6117 -118.13
  endloop
 endfacet

 facet normal 0.923881 0.38268 -6.378e-07
  outer loop
  vertex 47.0641 13.452 -121.13
  vertex 46.5837 14.6117 -118.13
  vertex 47.0641 13.452 -118.13
  endloop
 endfacet

 facet normal 0.92388 -0.382682 0
  outer loop
  vertex 46.5837 14.6117 -121.13
  vertex 47.0641 15.7713 -121.13
  vertex 47.0641 15.7713 -118.13
  endloop
 endfacet

 facet normal 0.92388 -0.382682 0
  outer loop
  vertex 46.5837 14.6117 -121.13
  vertex 47.0641 15.7713 -118.13
  vertex 46.5837 14.6117 -118.13
  endloop
 endfacet

 facet normal 0.382686 -0.923879 0
  outer loop
  vertex 48.2237 16.2517 -121.13
  vertex 48.2237 16.2517 -118.13
  vertex 47.0641 15.7713 -118.13
  endloop
 endfacet

 facet normal 0.382686 -0.923879 0
  outer loop
  vertex 48.2237 16.2517 -121.13
  vertex 47.0641 15.7713 -118.13
  vertex 47.0641 15.7713 -121.13
  endloop
 endfacet

 facet normal -0.382674 -0.923883 0
  outer loop
  vertex 49.3834 15.7713 -121.13
  vertex 49.3834 15.7713 -118.13
  vertex 48.2237 16.2517 -118.13
  endloop
 endfacet

 facet normal -0.382674 -0.923883 0
  outer loop
  vertex 49.3834 15.7713 -121.13
  vertex 48.2237 16.2517 -118.13
  vertex 48.2237 16.2517 -121.13
  endloop
 endfacet

 facet normal -0.923892 -0.382654 0
  outer loop
  vertex 49.3834 15.7713 -121.13
  vertex 49.8637 14.6117 -121.13
  vertex 49.8637 14.6117 -118.13
  endloop
 endfacet

 facet normal -0.923892 -0.382654 0
  outer loop
  vertex 49.3834 15.7713 -121.13
  vertex 49.8637 14.6117 -118.13
  vertex 49.3834 15.7713 -118.13
  endloop
 endfacet

 facet normal 0.923892 0.382653 -6.37755e-07
  outer loop
  vertex 77.5837 14.6117 -118.13
  vertex 78.064 13.452 -118.13
  vertex 78.064 13.452 -121.13
  endloop
 endfacet

 facet normal 0.923892 0.382653 -6.37755e-07
  outer loop
  vertex 77.5837 14.6117 -118.13
  vertex 78.064 13.452 -121.13
  vertex 77.5837 14.6117 -121.13
  endloop
 endfacet

 facet normal 0.382671 0.923885 -1.53981e-06
  outer loop
  vertex 78.064 13.452 -121.13
  vertex 78.064 13.452 -118.13
  vertex 79.2237 12.9717 -118.13
  endloop
 endfacet

 facet normal 0.382671 0.923885 -1.53981e-06
  outer loop
  vertex 78.064 13.452 -121.13
  vertex 79.2237 12.9717 -118.13
  vertex 79.2237 12.9717 -121.13
  endloop
 endfacet

 facet normal -0.382671 0.923885 -1.53981e-06
  outer loop
  vertex 79.2237 12.9717 -121.13
  vertex 79.2237 12.9717 -118.13
  vertex 80.3834 13.452 -118.13
  endloop
 endfacet

 facet normal -0.382671 0.923885 -1.53981e-06
  outer loop
  vertex 79.2237 12.9717 -121.13
  vertex 80.3834 13.452 -118.13
  vertex 80.3834 13.452 -121.13
  endloop
 endfacet

 facet normal -0.923892 0.382653 -6.37755e-07
  outer loop
  vertex 80.3834 13.452 -121.13
  vertex 80.3834 13.452 -118.13
  vertex 80.8637 14.6117 -118.13
  endloop
 endfacet

 facet normal -0.923892 0.382653 -6.37755e-07
  outer loop
  vertex 80.3834 13.452 -121.13
  vertex 80.8637 14.6117 -118.13
  vertex 80.8637 14.6117 -121.13
  endloop
 endfacet

 facet normal -0.923892 -0.382654 0
  outer loop
  vertex 80.3834 15.7713 -121.13
  vertex 80.8637 14.6117 -121.13
  vertex 80.8637 14.6117 -118.13
  endloop
 endfacet

 facet normal -0.923892 -0.382654 0
  outer loop
  vertex 80.3834 15.7713 -121.13
  vertex 80.8637 14.6117 -118.13
  vertex 80.3834 15.7713 -118.13
  endloop
 endfacet

 facet normal -0.382674 -0.923883 0
  outer loop
  vertex 79.2237 16.2517 -118.13
  vertex 79.2237 16.2517 -121.13
  vertex 80.3834 15.7713 -121.13
  endloop
 endfacet

 facet normal -0.382674 -0.923883 0
  outer loop
  vertex 79.2237 16.2517 -118.13
  vertex 80.3834 15.7713 -121.13
  vertex 80.3834 15.7713 -118.13
  endloop
 endfacet

 facet normal 0.382674 -0.923883 0
  outer loop
  vertex 79.2237 16.2517 -121.13
  vertex 79.2237 16.2517 -118.13
  vertex 78.064 15.7713 -118.13
  endloop
 endfacet

 facet normal 0.382674 -0.923883 0
  outer loop
  vertex 79.2237 16.2517 -121.13
  vertex 78.064 15.7713 -118.13
  vertex 78.064 15.7713 -121.13
  endloop
 endfacet

 facet normal 0.923892 -0.382654 0
  outer loop
  vertex 77.5837 14.6117 -121.13
  vertex 78.064 15.7713 -121.13
  vertex 78.064 15.7713 -118.13
  endloop
 endfacet

 facet normal 0.923892 -0.382654 0
  outer loop
  vertex 77.5837 14.6117 -121.13
  vertex 78.064 15.7713 -118.13
  vertex 77.5837 14.6117 -118.13
  endloop
 endfacet

 facet normal 0.13062 0.991432 0
  outer loop
  vertex 60.9924 16.3807 -121.13
  vertex 60.9924 16.3807 -118.13
  vertex 63.7237 16.1117 -118.13
  endloop
 endfacet

 facet normal 0.0653101 0.997865 0
  outer loop
  vertex 60.9924 16.3807 -121.13
  vertex 63.7237 16.1117 -118.13
  vertex 63.7237 16.1117 -121.13
  endloop
 endfacet

 facet normal 0.258729 0.96595 0
  outer loop
  vertex 60.9924 16.3807 -118.13
  vertex 60.9924 16.3807 -121.13
  vertex 58.3661 17.1774 -121.13
  endloop
 endfacet

 facet normal 0.321528 0.9469 0
  outer loop
  vertex 60.9924 16.3807 -118.13
  vertex 58.3661 17.1774 -121.13
  vertex 58.3661 17.1774 -118.13
  endloop
 endfacet

 facet normal 0.442209 0.896912 0
  outer loop
  vertex 58.3661 17.1774 -118.13
  vertex 58.3661 17.1774 -121.13
  vertex 55.9457 18.4711 -121.13
  endloop
 endfacet

 facet normal 0.500091 0.865973 0
  outer loop
  vertex 58.3661 17.1774 -118.13
  vertex 55.9457 18.4711 -121.13
  vertex 55.9457 18.4711 -118.13
  endloop
 endfacet

 facet normal 0.6088 0.793324 0
  outer loop
  vertex 55.1652 19.1117 -121.13
  vertex 55.1652 19.1117 -118.13
  vertex 55.9457 18.4711 -118.13
  endloop
 endfacet

 facet normal 0.58249 0.812838 0
  outer loop
  vertex 55.1652 19.1117 -121.13
  vertex 55.9457 18.4711 -118.13
  vertex 55.9457 18.4711 -121.13
  endloop
 endfacet

 facet normal -0.0653101 0.997865 0
  outer loop
  vertex 63.7237 16.1117 -121.13
  vertex 63.7237 16.1117 -118.13
  vertex 66.455 16.3807 -118.13
  endloop
 endfacet

 facet normal -0.13062 0.991432 0
  outer loop
  vertex 63.7237 16.1117 -121.13
  vertex 66.455 16.3807 -118.13
  vertex 66.455 16.3807 -121.13
  endloop
 endfacet

 facet normal -0.258729 0.96595 0
  outer loop
  vertex 66.455 16.3807 -121.13
  vertex 66.455 16.3807 -118.13
  vertex 69.0813 17.1774 -118.13
  endloop
 endfacet

 facet normal -0.321528 0.9469 0
  outer loop
  vertex 66.455 16.3807 -121.13
  vertex 69.0813 17.1774 -118.13
  vertex 69.0813 17.1774 -121.13
  endloop
 endfacet

endsolid AssimpScene
